<?xml version="1.0" encoding="UTF-8"?>
<svg id="Layer_2" data-name="Layer 2" xmlns="http://www.w3.org/2000/svg" viewBox="0 0 56.77 13">
  <defs>
    <style>
      .cls-1 {
        fill: #17e6a1;
      }

      .cls-2 {
        fill: #2354e6;
      }

      .cls-2, .cls-3 {
        fill-rule: evenodd;
      }
    </style>
  </defs>
  <g id="Layer_1-2" data-name="Layer 1">
    <g>
      <g>
        <path class="cls-2" d="M6.5,0C2.91,0,0,2.91,0,6.5s2.91,6.5,6.5,6.5,6.5-2.91,6.5-6.5h-2.93c0,1.97-1.6,3.58-3.57,3.58s-3.58-1.6-3.58-3.58,1.6-3.57,3.58-3.57V0Z"/>
        <rect class="cls-1" x="6.5" y="2.93" width="3.57" height="3.57"/>
      </g>
      <g>
        <rect x="47" y="2.25" width="1.61" height="1.61"/>
        <path class="cls-3" d="M44.07,7.87c.03-.18,.04-.37,.04-.56,0-2.02-1.64-3.66-3.66-3.66s-3.66,1.64-3.66,3.66,1.64,3.66,3.66,3.66c1.39,0,2.59-.77,3.21-1.91l-1.35-.66c-.38,.64-1.07,1.06-1.86,1.06-1,0-1.84-.68-2.09-1.61h4.18s0,0,0,0h1.53Zm-5.64-1.32c.31-.82,1.1-1.4,2.02-1.4s1.71,.58,2.02,1.4h-4.04Z"/>
        <rect x="44.54" y="9.17" width="1.61" height="1.61"/>
        <rect x="47" y="4.57" width="1.61" height="6.2"/>
        <path class="cls-3" d="M53.11,3.65c-2.02,0-3.66,1.64-3.66,3.66s1.64,3.66,3.66,3.66,3.66-1.64,3.66-3.66-1.64-3.66-3.66-3.66Zm0,5.82c-1.19,0-2.16-.97-2.16-2.16s.97-2.16,2.16-2.16,2.16,.97,2.16,2.16-.97,2.16-2.16,2.16Z"/>
        <path class="cls-3" d="M19.4,5.96v1.67h2.25c-.12,.48-.35,.9-.68,1.24-.5,.51-1.2,.8-1.97,.8-1.59,0-2.88-1.29-2.88-2.88s1.29-2.88,2.88-2.88c.85,0,1.63,.36,2.17,.99l1.29-1.05c-.86-1-2.13-1.6-3.46-1.6-2.5,0-4.54,2.04-4.54,4.54s2.04,4.54,4.54,4.54c1.22,0,2.34-.44,3.16-1.28,.69-.7,1.14-1.68,1.23-2.67,.04-.48,.05-.96,.02-1.43h-4.01Z"/>
        <path class="cls-3" d="M29.78,3.86v.51c-.61-.44-1.35-.71-2.16-.71-2.02,0-3.66,1.64-3.66,3.66s1.64,3.66,3.66,3.66c.81,0,1.56-.26,2.16-.71v.51h1.5V3.86h-1.5Zm-2.16,5.62c-1.19,0-2.16-.97-2.16-2.16s.97-2.16,2.16-2.16,2.16,.97,2.16,2.16-.97,2.16-2.16,2.16Z"/>
        <path class="cls-3" d="M34.49,2.25h-1.5v1.61h-.9v1.41h.9v3.7c0,.38,.05,.7,.14,.96,.09,.25,.24,.45,.41,.6,.17,.15,.38,.28,.62,.34,.24,.07,.51,.1,.8,.1s.56-.03,.78-.09c.21-.06,.41-.14,.59-.24v-1.14c-.3,.13-.57,.17-.89,.19-.33,.02-.53-.08-.69-.24-.17-.16-.26-.38-.26-.73v-3.45h1.84v-1.41h-1.84v-1.61Z"/>
      </g>
    </g>
  </g>
</svg>