<?xml version="1.0" encoding="UTF-8"?>
<svg id="Layer_2" data-name="Layer 2" xmlns="http://www.w3.org/2000/svg" viewBox="0 0 68 15">
  <defs>
    <style>
      .cls-1 {
        fill: #161f37;
      }
    </style>
  </defs>
  <g id="Layer_1-2" data-name="Layer 1">
    <g>
      <g>
        <polygon id="polygon27" class="cls-1" points="8.31 8.19 9.83 8.19 9.08 6.07 8.31 8.19"/>
        <path id="path29" class="cls-1" d="M7.5,0C3.36,0,0,3.36,0,7.5s3.36,7.5,7.5,7.5,7.5-3.36,7.5-7.5C14.99,3.36,11.64,0,7.5,0Zm3.35,11.05l-.51-1.44h-2.54l-.51,1.44H2.71L5.25,3.96h1.52l-2.03,5.66h1.52l2.03-5.66h1.54l2.56,7.1h-1.54Z"/>
      </g>
      <path class="cls-1" d="M20,11.15V3.85h1.82v5.87h3.14v1.43h-4.96Z"/>
      <path class="cls-1" d="M31.22,11.15h1.96l-2.54-7.3h-2.43l-2.54,7.3h1.96l.5-1.53h2.6l.5,1.53Zm-2.67-2.87l.84-2.59h.06l.84,2.59h-1.74Z"/>
      <path class="cls-1" d="M32.81,5.28v-1.43h6.37v1.43h-2.29v5.87h-1.8V5.28h-2.29Z"/>
      <path class="cls-1" d="M46.84,7.5c0,.8-.16,1.48-.48,2.04-.32,.56-.75,.98-1.3,1.27-.54,.29-1.15,.43-1.83,.43s-1.29-.15-1.83-.44c-.54-.29-.97-.72-1.29-1.27-.32-.56-.47-1.24-.47-2.04s.16-1.48,.47-2.04c.32-.56,.75-.98,1.29-1.27,.54-.29,1.15-.43,1.83-.43s1.28,.14,1.83,.43c.54,.29,.98,.71,1.3,1.27,.32,.56,.48,1.24,.48,2.04Zm-1.86,0c0-.48-.07-.88-.21-1.2-.14-.33-.34-.58-.6-.74-.26-.17-.57-.25-.93-.25s-.67,.08-.93,.25c-.26,.17-.46,.42-.6,.74-.14,.33-.21,.73-.21,1.2s.07,.88,.21,1.2c.14,.33,.34,.58,.6,.75,.26,.17,.57,.25,.93,.25s.67-.08,.93-.25c.26-.17,.46-.42,.6-.75,.14-.33,.21-.73,.21-1.2Z"/>
      <path class="cls-1" d="M47.91,11.15V3.85h1.82v3.09h.1l2.49-3.09h2.15l-2.67,3.26,2.72,4.04h-2.18l-1.88-2.87-.73,.89v1.98h-1.82Z"/>
      <path class="cls-1" d="M55.19,11.15V3.85h5.26v1.43h-3.43v1.5h3.17v1.44h-3.17v1.5h3.43v1.43h-5.26Z"/>
      <path class="cls-1" d="M68,3.85v7.3h-1.55l-3-4.21h-.05v4.21h-1.82V3.85h1.57l2.97,4.21h.06V3.85h1.82Z"/>
    </g>
  </g>
</svg>