<?xml version="1.0" encoding="UTF-8"?>
<svg id="Layer_2" data-name="Layer 2" xmlns="http://www.w3.org/2000/svg" xmlns:xlink="http://www.w3.org/1999/xlink" viewBox="0 0 59.89 15">
  <defs>
    <style>
      .cls-1 {
        fill: #ff8200;
      }

      .cls-2 {
        fill: #d1350f;
      }

      .cls-3 {
        fill: #444;
      }

      .cls-4 {
        fill: url(#_π_Û_æ_Æ_12);
      }
    </style>
    <linearGradient id="_π_Û_æ_Æ_12" data-name="π´¡¶ ±◊∂Ûµæ∆Æ 12" x1="9.08" y1="8.16" x2="7.2" y2="4.97" gradientUnits="userSpaceOnUse">
      <stop offset="0" stop-color="#ff8200"/>
      <stop offset="1" stop-color="#d1350f"/>
    </linearGradient>
  </defs>
  <g id="Layer_1-2" data-name="Layer 1">
    <g id="BI">
      <g id="logotype">
        <path class="cls-3" d="M39.57,10.63c-.21,.72-.62,1.23-1.37,1.23s-.88-.51-.67-1.23l1.02-3.55h-2.05l-1.02,3.55c-.55,1.92,.23,3,2.21,3s3.38-1.08,3.93-3l1.02-3.55h-2.05l-1.02,3.55Z"/>
        <path class="cls-3" d="M50.61,7.09c-.85,0-1.58,.21-2.19,.59-.41-.43-1.03-.59-1.56-.59-.4,0-.92,.1-1.53,.52-.04,.02-.06,.05-.1,.07-.06-.35-.34-.6-.76-.6h-1.02l-1.88,6.55h2.05l1.02-3.55c.24-.82,.8-1.36,1.34-1.36,.68,0,.95,.49,.7,1.36h0s-1.02,3.55-1.02,3.55h0s2.04,0,2.04,0h0s0,0,0,0l1.02-3.55c.21-.72,.66-1.36,1.41-1.36s.84,.65,.63,1.36l-1.02,3.55h2.05l1.02-3.55c.55-1.92-.23-3-2.21-3Z"/>
        <path class="cls-3" d="M27.87,5.8c.16-.56-.16-1.02-.73-1.02h-1.02l-2.15,7.5c-.22,.75,.22,1.36,.97,1.36h1.91l.59-2.05h-1.05c-.09,0-.16-.09-.13-.17l.65-2.28h.2c.56,0,1.15-.46,1.32-1.02l.29-1.02h-1.23l.37-1.3Z"/>
        <path class="cls-3" d="M33.09,7.09c-.4,0-.91,.1-1.51,.5l.52-1.8c.16-.56-.16-1.02-.73-1.02h-1.02l-2.54,8.86h2.05l1.02-3.55c.24-.82,.8-1.36,1.34-1.36,.68,0,.95,.49,.7,1.36l-1.02,3.55h2.04l1.02-3.55c.67-2.34-.78-2.99-1.87-2.99Z"/>
        <path class="cls-3" d="M18.7,7.09c-.37,0-.73,.04-1.06,.13l.41-1.42c.16-.56-.16-1.02-.73-1.02h-1.02l-1.6,5.59c-.59,2.05,.15,3.27,2.13,3.27s3.42-1.23,4.01-3.27c.59-2.05-.15-3.27-2.13-3.27Zm-1.38,4.81c-.75,0-.83-.69-.58-1.54,.24-.85,.71-1.54,1.46-1.54s.83,.69,.58,1.54-.71,1.54-1.46,1.54Z"/>
        <path class="cls-3" d="M57.57,7.09c-.37,0-.73,.04-1.06,.13l.41-1.42c.16-.56-.16-1.02-.73-1.02h-1.02l-1.6,5.59c-.59,2.05,.15,3.27,2.13,3.27s3.42-1.23,4.01-3.27c.59-2.05-.15-3.27-2.13-3.27Zm-1.38,4.81c-.75,0-.83-.69-.58-1.54s.71-1.54,1.46-1.54,.83,.69,.58,1.54c-.24,.85-.71,1.54-1.46,1.54Z"/>
        <path class="cls-3" d="M23.48,7.09h-1.02l-1.88,6.55h2.05l1.58-5.53c.16-.56-.16-1.02-.73-1.02Z"/>
        <path class="cls-3" d="M24.14,4.77c-.56,0-1.15,.46-1.32,1.02-.16,.56,.16,1.02,.73,1.02s1.15-.46,1.32-1.02c.16-.56-.16-1.02-.73-1.02Z"/>
      </g>
      <g id="Symbol">
        <path class="cls-2" d="M1.49,7.5h-.2C.34,7.5-.2,6.74,.07,5.8L.75,3.41h1.91L1.49,7.5Z"/>
        <path class="cls-1" d="M7.37,3.41h-1.16l-1.17,4.09h1.16c.75,0,1,.57,.67,1.7-.33,1.14-.9,1.7-1.65,1.7s-1-.57-.67-1.7L6.7,1.7c.27-.94-.27-1.7-1.22-1.7H3.09L.46,9.2h0c-1.11,3.86,.38,5.8,3.59,5.8s5.8-1.93,6.91-5.8c1.11-3.86-.38-5.8-3.59-5.8Z"/>
        <path class="cls-4" d="M10.96,9.2c1.11-3.86-.38-5.8-3.59-5.8h-1.16l-1.17,4.09h1.16c.75,0,1,.57,.67,1.7"/>
      </g>
    </g>
  </g>
</svg>