<?xml version="1.0" encoding="UTF-8"?>
<svg id="Layer_2" data-name="Layer 2" xmlns="http://www.w3.org/2000/svg" xmlns:xlink="http://www.w3.org/1999/xlink" viewBox="0 0 70.57 10">
  <defs>
    <style>
      .cls-1 {
        fill: url(#linear-gradient);
      }

      .cls-2 {
        fill: #f37320;
      }

      .cls-3 {
        fill: #464648;
      }
    </style>
    <linearGradient id="linear-gradient" x1="-10.36" y1="965.09" x2="-17.23" y2="962.57" gradientTransform="translate(23.9 1040.74) scale(1.07 -1.07)" gradientUnits="userSpaceOnUse">
      <stop offset=".36" stop-color="#d63026"/>
      <stop offset="1" stop-color="#f37320"/>
    </linearGradient>
  </defs>
  <g id="Layer_1-2" data-name="Layer 1">
    <g>
      <g>
        <polygon class="cls-3" points="22.64 9.89 24.08 9.89 25.98 3.05 24.48 3.05 22.64 9.89"/>
        <polygon class="cls-3" points="33.05 3.05 26.67 3.05 26.32 4.25 28.79 4.25 27.3 9.89 28.74 9.89 30.29 4.25 32.7 4.25 33.05 3.05"/>
        <path class="cls-3" d="M35.4,4.66c.34-.29,.8-.4,1.44-.4h2.47l.34-1.21h-2.64c-.69,0-1.32,.11-1.78,.29-.52,.17-.92,.52-1.32,.98-.52,.57-.86,1.32-1.09,2.24-.34,1.38-.29,2.3,.29,2.87,.17,.17,.46,.34,.75,.4s.69,.11,1.21,.11h1.03c1.09,0,2.3-.86,2.64-1.95,.34-1.15-.29-2.13-1.49-2.13h-.98c-.34,0-.69,.29-.8,.63h0c-.11,.34,.11,.63,.46,.63h.69c.46,0,.75,.34,.63,.8-.11,.46-.57,.86-1.03,.86h-.57c-.34,0-.63-.06-.8-.11-.23-.06-.34-.17-.46-.34-.11-.17-.17-.4-.17-.75s.06-.69,.17-1.15c.29-.92,.63-1.49,1.03-1.78Z"/>
        <path class="cls-3" d="M41.32,8.51c-.23-.11-.34-.34-.29-.63,0-.17,.11-.46,.17-.98l1.03-3.85h-1.44l-1.03,3.85c-.17,.69-.29,1.15-.29,1.44,0,.75,.34,1.21,1.03,1.44,.29,.06,.8,.11,1.55,.11h1.55l.34-1.21h-1.38c-.63,0-1.03-.06-1.26-.17Z"/>
        <path class="cls-3" d="M51.84,4.77c-.06-.63-.34-1.15-.8-1.44-.4-.23-.98-.34-1.61-.34-.98,0-1.78,.23-2.41,.69-.75,.57-1.32,1.49-1.67,2.82-.17,.75-.23,1.38-.17,1.9,.11,.52,.34,.92,.75,1.15,.46,.29,1.03,.46,1.78,.46,.57,0,1.03-.11,1.55-.29,.63-.23,1.15-.69,1.61-1.26,.34-.52,.63-1.15,.8-1.84,.17-.75,.23-1.38,.17-1.84Zm-1.67,1.67c-.23,.8-.52,1.38-.86,1.78s-.86,.57-1.38,.57c-.57,0-.98-.17-1.15-.57-.17-.34-.17-.98,.06-1.78,.23-.75,.46-1.32,.75-1.67,.4-.46,.92-.63,1.55-.63s1.03,.23,1.15,.69c.11,.34,.06,.92-.11,1.61Z"/>
        <polygon class="cls-3" points="62.87 3.05 58.56 9.89 60.06 9.89 63.16 4.66 63.45 9.89 64.89 9.89 64.31 3.05 62.87 3.05"/>
        <path class="cls-3" d="M69.25,8.68c-.63,0-1.09-.06-1.32-.17-.23-.11-.34-.34-.29-.63,0-.17,.11-.46,.17-.98l1.03-3.85h-1.44l-1.03,3.85c-.17,.69-.29,1.15-.29,1.44,0,.75,.34,1.21,1.03,1.44,.29,.06,.8,.11,1.55,.11h1.55l.34-1.21h-1.32Z"/>
        <path class="cls-3" d="M22.87,5.06h0c.29-1.15-.34-2.07-1.49-2.07h-2.82c-.86,0-1.61,.57-1.84,1.44l-1.44,5.46h4.25c1.15,0,2.3-.92,2.59-2.07h0c.17-.57,.06-1.03-.23-1.38,.46-.34,.8-.8,.98-1.38Zm-2.24,2.82c-.11,.46-.57,.8-1.03,.8h-2.59l.46-1.61h2.59c.46,0,.69,.34,.57,.8Zm.75-2.82c-.11,.46-.57,.8-1.03,.8h-2.59l.23-.98c.11-.4,.46-.69,.86-.69h1.9c.52,.06,.75,.4,.63,.86Z"/>
        <path class="cls-3" d="M59.14,5.06h0c.29-1.15-.34-2.07-1.49-2.07h-2.82c-.86,0-1.61,.57-1.84,1.44l-1.44,5.46h4.25c1.15,0,2.3-.92,2.59-2.07h0c.17-.57,.06-1.03-.23-1.38,.46-.34,.86-.8,.98-1.38Zm-2.18,2.82c-.11,.46-.57,.8-1.03,.8h-2.59l.46-1.61h2.59c.4,0,.69,.34,.57,.8Zm.75-2.82c-.11,.46-.57,.8-1.03,.8h-2.59l.23-.98c.11-.4,.46-.69,.86-.69h1.9c.46,.06,.75,.4,.63,.86Z"/>
      </g>
      <g>
        <path class="cls-1" d="M11.61,4.31l-2.01,.69-.98,1.15-.4,1.44H2.76l-.63,2.36h6.09c1.61,0,3.39-1.21,3.97-2.87,.4-1.15,.11-2.13-.57-2.76Z"/>
        <path class="cls-2" d="M4.66,7.59c-1.55,0-1.61-1.15-1.44-1.78s0,0,.29-1.15c.17-.57,.57-1.21,1.15-1.67h0c.06-.06,.17-.11,.23-.17h.06c.52-.29,1.09-.52,1.72-.52h2.93l.23-.69,1.72,1.44-2.53,1.44,.23-.75h-2.76c-.98,0-1.26,.69-1.38,.98-.06,.46-.17,1.44,1.03,1.44h3.1c1.61,0,3.39-1.21,3.97-2.87,.57-1.78-.4-3.28-2.18-3.28H5.17c-.63,0-1.26,.17-1.72,.52h-.06c-.06,.06-.17,.11-.23,.17h0c-.57,.46-.98,1.03-1.15,1.67L0,9.94H2.53l.63-2.36h1.44"/>
      </g>
    </g>
  </g>
</svg>