<?xml version="1.0" encoding="UTF-8"?>
<svg id="Layer_2" data-name="Layer 2" xmlns="http://www.w3.org/2000/svg" viewBox="0 0 51.89 12">
  <defs>
    <style>
      .cls-1 {
        fill: #28cd96;
      }
    </style>
  </defs>
  <g id="Layer_1-2" data-name="Layer 1">
    <g>
      <g>
        <path class="cls-1" d="M40.85,6c0-.31,0-.6-.01-.86s-.04-.52-.07-.74-.11-.44-.2-.65-.24-.4-.42-.58c-.25-.25-.53-.44-.84-.58-.31-.13-.67-.2-1.08-.2s-.77,.07-1.08,.2c-.31,.13-.6,.32-.85,.58-.18,.18-.31,.37-.41,.58s-.17,.42-.2,.65c-.04,.23-.06,.48-.07,.74s-.01,.55-.01,.86,0,.59,.01,.86c.01,.26,.04,.52,.07,.74,.04,.23,.11,.44,.2,.65,.1,.2,.24,.4,.41,.58,.25,.25,.53,.44,.85,.58,.31,.13,.67,.2,1.08,.2s.75-.07,1.08-.2c.31-.13,.6-.32,.84-.58,.18-.18,.31-.37,.42-.58,.1-.2,.17-.42,.2-.65s.07-.48,.07-.74c.01-.28,.01-.55,.01-.86h0Zm-1.38,0c0,.34,0,.62-.01,.85-.01,.23-.02,.41-.06,.55-.02,.14-.06,.26-.11,.35-.05,.1-.1,.18-.17,.25-.1,.12-.23,.2-.37,.28-.16,.07-.32,.1-.52,.11-.19,0-.36-.04-.52-.11s-.28-.16-.38-.28c-.07-.07-.12-.16-.17-.25-.05-.1-.08-.2-.11-.35-.02-.14-.05-.32-.05-.55-.01-.23-.01-.5-.01-.85s0-.62,.01-.85c.01-.23,.02-.41,.05-.55,.02-.14,.06-.26,.11-.35,.05-.1,.1-.18,.17-.25,.1-.12,.23-.2,.38-.28,.16-.07,.32-.1,.52-.11,.19,0,.36,.04,.52,.11,.14,.07,.28,.16,.37,.28,.07,.07,.12,.16,.17,.25s.08,.2,.11,.35,.05,.32,.06,.55c0,.23,.01,.52,.01,.85Z"/>
        <path class="cls-1" d="M51.89,2.57c0-.07-.06-.12-.12-.12h-1.14c-.07,0-.12,.06-.12,.12V6.8l-2.79-4.31s-.04-.04-.07-.04h-1.07c-.06,0-.12,.06-.12,.12v6.85c0,.07,.06,.12,.12,.12h1.14c.07,0,.12-.06,.12-.12V5.19l2.79,4.33s.04,.04,.07,.04h1.07c.07,0,.12-.06,.12-.12V2.57Z"/>
        <path class="cls-1" d="M44.23,2.57c0-.07-.06-.12-.12-.12h-1.14c-.07,0-.12,.06-.12,.12v6.85c0,.07,.06,.12,.12,.12h1.14c.07,0,.12-.06,.12-.12V2.57Z"/>
        <path class="cls-1" d="M30.55,6c0-.34,0-.62,.01-.85,.01-.23,.02-.41,.05-.55,.11-.61,.58-.97,1.17-.97,.4,0,.74,.14,.97,.48,.1,.14,.17,.31,.22,.5,0,.02,.01,.04,.04,.04h1.34s.02-.01,.02-.04c-.14-.83-.59-1.58-1.38-1.95-.36-.17-.78-.26-1.23-.26-.75,0-1.4,.26-1.92,.78-.3,.3-.49,.66-.58,1.07-.08,.4-.12,.98-.12,1.76s.04,1.37,.12,1.76c.08,.41,.29,.77,.58,1.07,.52,.52,1.16,.78,1.92,.78,.46,0,.86-.08,1.23-.26,.78-.37,1.23-1.11,1.38-1.95,0-.02,0-.04-.02-.04h-1.34s-.04,.01-.04,.04c-.05,.19-.12,.36-.22,.5-.23,.32-.58,.47-.97,.48-.6,0-1.07-.36-1.17-.97-.02-.14-.05-.32-.05-.55-.01-.23-.01-.52-.01-.85Z"/>
        <path class="cls-1" d="M16.34,2.57c0-.07-.06-.12-.12-.12h-1.14c-.07,0-.12,.06-.12,.12v6.85c0,.07,.06,.12,.12,.12h1.14c.07,0,.12-.06,.12-.12v-2.01l.92-1.1,1.88,3.2s.04,.04,.07,.04h1.39c.06,0,.07-.04,.05-.1l-2.47-4.18,2.26-2.72c.05-.06,.02-.11-.05-.11h-1.52s-.04,0-.05,.02l-2.49,2.98V2.57h0Z"/>
        <path class="cls-1" d="M24.67,8.37c-.65,0-1.22-.6-1.22-1.31V2.57c0-.07-.06-.12-.12-.12h-1.14c-.07,0-.12,.06-.12,.12V7.05c0,1.57,1.17,2.56,2.61,2.56s2.61-.99,2.61-2.56V2.57c0-.07-.06-.12-.12-.12h-1.14c-.07,0-.12,.06-.12,.12V7.07c-.02,.71-.61,1.31-1.25,1.31Z"/>
      </g>
      <path class="cls-1" d="M3.46,6l3.55,3.55,2.24-2.24c.4-.4,1.04-.4,1.44,0s.4,1.04,0,1.44l-2.96,2.96c-.4,.4-1.04,.4-1.44,0L2.04,7.44v2.54c0,.55-.46,1.02-1.02,1.02s-1.02-.46-1.02-1.02V2.05c0-.56,.46-1.02,1.02-1.02s1.02,.46,1.02,1.02v2.52L6.3,.3c.4-.4,1.04-.4,1.44,0l2.96,2.96c.4,.4,.4,1.04,0,1.44s-1.04,.4-1.44,0l-2.24-2.24-3.56,3.55h0Zm3.56-1.02h0c-.56,0-1.02,.46-1.02,1.02s.46,1.02,1.02,1.02,1.02-.46,1.02-1.02c-.01-.56-.47-1.02-1.02-1.02Z"/>
    </g>
  </g>
</svg>