<?xml version="1.0" encoding="UTF-8"?>
<svg id="Layer_2" data-name="Layer 2" xmlns="http://www.w3.org/2000/svg" viewBox="0 0 83.77 79.53">
  <defs>
    <style>
      .cls-1 {
        fill: #fff;
      }

      .cls-2 {
        fill: #2354cf;
      }
    </style>
  </defs>
  <g id="Layer_1-2" data-name="Layer 1">
    <g>
      <g>
        <rect class="cls-1" x="9.35" y="8.08" width="62.14" height="45.14"/>
        <polygon class="cls-1" points="71.49 53.23 9.35 53.23 .77 66.57 79.63 66.57 71.49 53.23"/>
        <polygon class="cls-1" points="76.86 71.83 3.51 71.83 .77 66.57 79.63 66.57 76.86 71.83"/>
        <path d="M71.49,49.24c-.43,0-.77-.35-.77-.77V8.49h-3.66c-.43,0-.77-.35-.77-.77s.35-.77,.77-.77h4.43c.43,0,.77,.35,.77,.77V48.47c0,.43-.35,.77-.77,.77Z"/>
        <path d="M9.35,17.75c-.43,0-.77-.35-.77-.77V7.72c0-.43,.35-.77,.77-.77H62.63c.43,0,.77,.35,.77,.77s-.35,.77-.77,.77H10.12v8.49c0,.43-.35,.77-.77,.77Z"/>
        <path d="M9.35,49.24c-.43,0-.77-.35-.77-.77V20.19c0-.43,.35-.77,.77-.77s.77,.35,.77,.77v28.28c0,.43-.35,.77-.77,.77Z"/>
        <path d="M79.63,67.34c-.26,0-.51-.13-.66-.37l-7.91-12.97h-16.35c-.43,0-.77-.35-.77-.77s.35-.77,.77-.77h16.78c.27,0,.52,.14,.66,.37l8.14,13.34c.22,.36,.11,.84-.26,1.06-.13,.08-.26,.11-.4,.11Z"/>
        <path d="M2.67,64.38c-.14,0-.29-.04-.42-.12-.36-.23-.46-.71-.23-1.06l6.68-10.38c.14-.22,.39-.35,.65-.35H51.25c.43,0,.77,.35,.77,.77s-.35,.77-.77,.77H9.77l-6.45,10.03c-.15,.23-.4,.35-.65,.35Z"/>
        <path d="M75.81,72.61H4.59c-1.22,0-2.33-.72-2.82-1.84l-1.7-3.88c-.1-.24-.08-.51,.06-.73,.14-.22,.38-.35,.65-.35H31.07c.43,0,.77,.35,.77,.77s-.35,.77-.77,.77H1.95l1.23,2.8c.25,.56,.8,.92,1.41,.92H75.81c.61,0,1.17-.36,1.41-.92l1.23-2.8h-29.12c-.43,0-.77-.35-.77-.77s.35-.77,.77-.77h30.3c.26,0,.5,.13,.65,.35,.14,.22,.17,.49,.06,.73l-1.7,3.88c-.49,1.12-1.6,1.84-2.82,1.84Z"/>
        <path d="M21.13,16.64h-3.83c-.43,0-.77-.35-.77-.77s.35-.77,.77-.77h3.83c.43,0,.77,.35,.77,.77s-.35,.77-.77,.77Z"/>
        <path d="M21.13,22.02h-3.83c-.43,0-.77-.35-.77-.77s.35-.77,.77-.77h3.83c.43,0,.77,.35,.77,.77s-.35,.77-.77,.77Z"/>
        <path d="M21.13,27.4h-3.83c-.43,0-.77-.35-.77-.77s.35-.77,.77-.77h3.83c.43,0,.77,.35,.77,.77s-.35,.77-.77,.77Z"/>
        <path d="M21.13,32.78h-3.83c-.43,0-.77-.35-.77-.77s.35-.77,.77-.77h3.83c.43,0,.77,.35,.77,.77s-.35,.77-.77,.77Z"/>
        <path d="M21.13,38.17h-3.83c-.43,0-.77-.35-.77-.77s.35-.77,.77-.77h3.83c.43,0,.77,.35,.77,.77s-.35,.77-.77,.77Z"/>
        <path d="M21.13,43.55h-3.83c-.43,0-.77-.35-.77-.77s.35-.77,.77-.77h3.83c.43,0,.77,.35,.77,.77s-.35,.77-.77,.77Z"/>
        <path d="M29.22,16.64h-3.83c-.43,0-.77-.35-.77-.77s.35-.77,.77-.77h3.83c.43,0,.77,.35,.77,.77s-.35,.77-.77,.77Z"/>
        <path d="M37.08,22.02h-11.7c-.43,0-.77-.35-.77-.77s.35-.77,.77-.77h11.7c.43,0,.77,.35,.77,.77s-.35,.77-.77,.77Z"/>
        <path d="M56.12,22.02h-15.02c-.43,0-.77-.35-.77-.77s.35-.77,.77-.77h15.02c.43,0,.77,.35,.77,.77s-.35,.77-.77,.77Z"/>
        <path d="M43.58,27.4H25.38c-.43,0-.77-.35-.77-.77s.35-.77,.77-.77h18.2c.43,0,.77,.35,.77,.77s-.35,.77-.77,.77Z"/>
        <path d="M52.72,27.4h-6.18c-.43,0-.77-.35-.77-.77s.35-.77,.77-.77h6.18c.43,0,.77,.35,.77,.77s-.35,.77-.77,.77Z"/>
        <path d="M63.3,27.4h-6.18c-.43,0-.77-.35-.77-.77s.35-.77,.77-.77h6.18c.43,0,.77,.35,.77,.77s-.35,.77-.77,.77Z"/>
        <path d="M43.58,32.78H25.38c-.43,0-.77-.35-.77-.77s.35-.77,.77-.77h18.2c.43,0,.77,.35,.77,.77s-.35,.77-.77,.77Z"/>
        <path d="M59.15,32.78h-12.6c-.43,0-.77-.35-.77-.77s.35-.77,.77-.77h12.6c.43,0,.77,.35,.77,.77s-.35,.77-.77,.77Z"/>
        <path d="M33.45,38.17h-8.07c-.43,0-.77-.35-.77-.77s.35-.77,.77-.77h8.07c.43,0,.77,.35,.77,.77s-.35,.77-.77,.77Z"/>
        <path d="M63.3,38.17h-6.18c-.43,0-.77-.35-.77-.77s.35-.77,.77-.77h6.18c.43,0,.77,.35,.77,.77s-.35,.77-.77,.77Z"/>
        <path d="M52.85,38.17h-15c-.43,0-.77-.35-.77-.77s.35-.77,.77-.77h15c.43,0,.77,.35,.77,.77s-.35,.77-.77,.77Z"/>
        <path d="M47.43,43.55H25.38c-.43,0-.77-.35-.77-.77s.35-.77,.77-.77h22.05c.43,0,.77,.35,.77,.77s-.35,.77-.77,.77Z"/>
        <path d="M58.62,43.55h-6.4c-.43,0-.77-.35-.77-.77s.35-.77,.77-.77h6.4c.43,0,.77,.35,.77,.77s-.35,.77-.77,.77Z"/>
        <g>
          <rect x="12.32" y="56.19" width="1.92" height="2.54" rx=".96" ry=".96"/>
          <rect x="17.26" y="56.19" width="1.92" height="2.54" rx=".96" ry=".96"/>
          <rect x="22.19" y="56.19" width="1.92" height="2.54" rx=".96" ry=".96"/>
          <rect x="27.12" y="56.19" width="1.92" height="2.54" rx=".96" ry=".96"/>
          <rect x="32.06" y="56.19" width="1.92" height="2.54" rx=".96" ry=".96"/>
          <rect x="36.99" y="56.19" width="1.92" height="2.54" rx=".96" ry=".96"/>
          <rect x="41.93" y="56.19" width="1.92" height="2.54" rx=".96" ry=".96"/>
          <rect x="46.86" y="56.19" width="1.92" height="2.54" rx=".96" ry=".96"/>
          <rect x="51.8" y="56.19" width="1.92" height="2.54" rx=".96" ry=".96"/>
          <rect x="56.73" y="56.19" width="1.92" height="2.54" rx=".96" ry=".96"/>
          <rect x="61.66" y="56.19" width="1.92" height="2.54" rx=".96" ry=".96"/>
          <rect x="66.6" y="56.19" width="1.92" height="2.54" rx=".96" ry=".96"/>
        </g>
        <g>
          <rect x="14.79" y="60.48" width="1.92" height="2.54" rx=".96" ry=".96"/>
          <rect x="19.72" y="60.48" width="1.92" height="2.54" rx=".96" ry=".96"/>
          <rect x="24.66" y="60.48" width="1.92" height="2.54" rx=".96" ry=".96"/>
          <rect x="29.59" y="60.48" width="1.92" height="2.54" rx=".96" ry=".96"/>
          <rect x="34.53" y="60.48" width="1.92" height="2.54" rx=".96" ry=".96"/>
          <rect x="39.46" y="60.48" width="1.92" height="2.54" rx=".96" ry=".96"/>
          <rect x="44.39" y="60.48" width="1.92" height="2.54" rx=".96" ry=".96"/>
          <rect x="49.33" y="60.48" width="1.92" height="2.54" rx=".96" ry=".96"/>
          <rect x="54.26" y="60.48" width="1.92" height="2.54" rx=".96" ry=".96"/>
          <rect x="59.2" y="60.48" width="1.92" height="2.54" rx=".96" ry=".96"/>
          <rect x="64.13" y="60.48" width="1.92" height="2.54" rx=".96" ry=".96"/>
        </g>
      </g>
      <path class="cls-2" d="M2.78,35.48c-.43,0-.77-.35-.77-.77v-.55c0-.43,.35-.77,.77-.77s.77,.35,.77,.77v.55c0,.43-.35,.77-.77,.77Zm0-3.64c-.43,0-.77-.35-.77-.77v-.77c0-.43,.35-.77,.77-.77s.77,.35,.77,.77v.77c0,.43-.35,.77-.77,.77Zm0-3.85c-.43,0-.77-.35-.77-.77v-.77c0-.43,.35-.77,.77-.77s.77,.35,.77,.77v.77c0,.43-.35,.77-.77,.77Zm0-3.85c-.43,0-.77-.35-.77-.77v-.77c0-.43,.35-.77,.77-.77s.77,.35,.77,.77v.77c0,.43-.35,.77-.77,.77Zm0-3.85c-.43,0-.77-.35-.77-.77v-.77c0-.43,.35-.77,.77-.77s.77,.35,.77,.77v.77c0,.43-.35,.77-.77,.77Zm0-3.85c-.43,0-.77-.35-.77-.77v-.77c0-.43,.35-.77,.77-.77s.77,.35,.77,.77v.77c0,.43-.35,.77-.77,.77Z"/>
      <g>
        <path class="cls-2" d="M47.7,1.54h-.77c-.43,0-.77-.35-.77-.77s.35-.77,.77-.77h.77c.43,0,.77,.35,.77,.77s-.35,.77-.77,.77Zm-3.85,0h-.77c-.43,0-.77-.35-.77-.77s.35-.77,.77-.77h.77c.43,0,.77,.35,.77,.77s-.35,.77-.77,.77Zm-3.85,0h-.77c-.43,0-.77-.35-.77-.77s.35-.77,.77-.77h.77c.43,0,.77,.35,.77,.77s-.35,.77-.77,.77Z"/>
        <path class="cls-2" d="M68.52,1.54h-17.33c-.43,0-.77-.35-.77-.77s.35-.77,.77-.77h17.33c.43,0,.77,.35,.77,.77s-.35,.77-.77,.77Z"/>
      </g>
      <g>
        <path class="cls-2" d="M42.42,79.53H20.04c-.43,0-.77-.35-.77-.77s.35-.77,.77-.77h22.39c.43,0,.77,.35,.77,.77s-.35,.77-.77,.77Z"/>
        <path class="cls-2" d="M16.09,79.53h-.77c-.43,0-.77-.35-.77-.77s.35-.77,.77-.77h.77c.43,0,.77,.35,.77,.77s-.35,.77-.77,.77Zm-3.85,0h-.77c-.43,0-.77-.35-.77-.77s.35-.77,.77-.77h.77c.43,0,.77,.35,.77,.77s-.35,.77-.77,.77Zm-3.85,0h-.77c-.43,0-.77-.35-.77-.77s.35-.77,.77-.77h.77c.43,0,.77,.35,.77,.77s-.35,.77-.77,.77Z"/>
      </g>
      <g>
        <path class="cls-2" d="M83,58.69c-.26,0-.51-.13-.66-.37l-4.7-7.66v-11.39c0-.43,.35-.77,.77-.77s.77,.35,.77,.77v10.95l4.47,7.29c.22,.36,.11,.84-.25,1.06-.13,.08-.26,.11-.4,.11Z"/>
        <path class="cls-2" d="M78.42,35.87c-.43,0-.77-.35-.77-.77v-.77c0-.43,.35-.77,.77-.77s.77,.35,.77,.77v.77c0,.43-.35,.77-.77,.77Zm0-3.85c-.43,0-.77-.35-.77-.77v-.77c0-.43,.35-.77,.77-.77s.77,.35,.77,.77v.77c0,.43-.35,.77-.77,.77Zm0-3.85c-.43,0-.77-.35-.77-.77v-.77c0-.43,.35-.77,.77-.77s.77,.35,.77,.77v.77c0,.43-.35,.77-.77,.77Z"/>
      </g>
    </g>
  </g>
</svg>