<?xml version="1.0" encoding="UTF-8"?>
<svg id="Layer_2" data-name="Layer 2" xmlns="http://www.w3.org/2000/svg" viewBox="0 0 80 90">
  <defs>
    <style>
      .cls-1 {
        fill: #fff;
      }

      .cls-2 {
        fill: #2354cf;
      }
    </style>
  </defs>
  <g id="Layer_1-2" data-name="Layer 1">
    <g>
      <rect class="cls-1" x="6.01" y="33.33" width="66.48" height="42.06"/>
      <polygon class="cls-1" points="63.82 26.14 39.42 8.4 15.02 26.14 15.02 33.33 63.82 33.33 63.82 26.14"/>
      <polygon class="cls-1" points="75.33 82.44 3.42 82.44 .75 75.39 78.08 75.39 75.33 82.44"/>
      <path d="M72.49,72.69c-.42,0-.75-.34-.75-.75V34.08h-3.99c-.42,0-.75-.34-.75-.75s.34-.75,.75-.75h4.74c.42,0,.75,.34,.75,.75v38.61c0,.42-.34,.75-.75,.75Z"/>
      <path d="M6.01,64.41c-.42,0-.75-.34-.75-.75v-30.33c0-.42,.34-.75,.75-.75h4.71c.42,0,.75,.34,.75,.75s-.34,.75-.75,.75h-3.96v29.57c0,.42-.34,.75-.75,.75Z"/>
      <path d="M6.01,76.14c-.42,0-.75-.34-.75-.75v-8.52c0-.42,.34-.75,.75-.75s.75,.34,.75,.75v8.52c0,.42-.34,.75-.75,.75Z"/>
      <path d="M74.34,83.2H4.5c-1.22,0-2.31-.84-2.78-2.13L.03,75.61c-.07-.23-.03-.48,.11-.67,.14-.19,.37-.31,.61-.31H30.46c.19,0,.38,.07,.52,.21l2.37,2.26c.3,.29,.31,.76,.03,1.07-.29,.3-.76,.31-1.06,.03l-2.15-2.05H1.77l1.37,4.44c.24,.66,.78,1.11,1.36,1.11H74.34c.58,0,1.12-.45,1.37-1.14l1.36-4.41h-28.35l-1.73,1.95c-.14,.16-.35,.25-.56,.25h-10.02c-.42,0-.75-.34-.75-.75s.34-.75,.75-.75h9.69l1.73-1.95c.14-.16,.35-.25,.56-.25h29.71c.24,0,.46,.11,.61,.31,.14,.19,.18,.44,.11,.67l-1.67,5.42c-.48,1.33-1.57,2.17-2.79,2.17Z"/>
      <path d="M15.02,29.83c-.42,0-.75-.34-.75-.75v-2.94c0-.24,.12-.47,.31-.61L38.98,7.79c.26-.19,.62-.19,.88,0l11.1,8.07c.34,.24,.41,.72,.17,1.05-.25,.34-.72,.41-1.05,.17l-10.66-7.75L15.77,26.52v2.55c0,.42-.34,.75-.75,.75Z"/>
      <g>
        <path class="cls-2" d="M27.95,9.93c-.23,0-.46-.11-.61-.31-.24-.34-.17-.81,.17-1.05l.61-.44c.34-.24,.81-.17,1.05,.17,.24,.34,.17,.81-.17,1.05l-.61,.44c-.13,.1-.29,.14-.44,.14Zm3.05-2.21c-.23,0-.46-.11-.61-.31-.24-.34-.17-.81,.17-1.05l.61-.44c.34-.24,.81-.17,1.05,.17,.24,.34,.17,.81-.17,1.05l-.61,.44c-.13,.1-.29,.14-.44,.14Z"/>
        <path class="cls-2" d="M47.47,7.27c-.15,0-.31-.05-.44-.14l-7.49-5.45-4.64,3.37c-.34,.24-.81,.17-1.05-.17-.24-.34-.17-.81,.17-1.05L39.09,.14c.26-.19,.62-.19,.88,0l7.93,5.77c.34,.24,.41,.72,.17,1.05-.15,.2-.38,.31-.61,.31Z"/>
        <path class="cls-2" d="M62.88,18.75c-.15,0-.31-.05-.44-.14l-.61-.44c-.34-.24-.41-.72-.17-1.05,.24-.34,.71-.41,1.05-.17l.61,.44c.34,.24,.41,.72,.17,1.05-.15,.2-.38,.31-.61,.31Zm-3.05-2.21c-.15,0-.31-.05-.44-.14l-.61-.44c-.34-.24-.41-.72-.17-1.05,.24-.34,.71-.41,1.05-.17l.61,.44c.34,.24,.41,.72,.17,1.05-.15,.2-.38,.31-.61,.31Zm-3.04-2.21c-.15,0-.31-.05-.44-.14l-.61-.44c-.34-.24-.41-.72-.17-1.05,.24-.34,.71-.41,1.05-.17l.61,.44c.34,.24,.41,.72,.17,1.05-.15,.2-.38,.31-.61,.31Zm-3.05-2.21c-.15,0-.31-.05-.44-.14l-.61-.44c-.34-.24-.41-.72-.17-1.05,.24-.34,.71-.41,1.05-.17l.61,.44c.34,.24,.41,.72,.17,1.05-.15,.2-.38,.31-.61,.31Zm-3.05-2.21c-.15,0-.31-.05-.44-.14l-.19-.13c-.34-.24-.41-.72-.17-1.05,.24-.34,.71-.41,1.05-.17l.19,.13c.34,.24,.41,.72,.17,1.05-.15,.2-.38,.31-.61,.31Z"/>
      </g>
      <path d="M63.82,29.83c-.42,0-.75-.34-.75-.75v-2.55l-9.87-7.17c-.34-.24-.41-.72-.17-1.05,.24-.34,.71-.41,1.05-.17l10.18,7.4c.19,.14,.31,.37,.31,.61v2.94c0,.42-.34,.75-.75,.75Z"/>
      <path d="M63.82,56.06h-3.7c-.42,0-.75-.34-.75-.75v-16.87c0-.42,.34-.75,.75-.75h2.94v-3.61h-7.42c-.42,0-.75-.34-.75-.75s.34-.75,.75-.75h8.17c.42,0,.75,.34,.75,.75v5.12c0,.42-.34,.75-.75,.75h-2.94v15.36h2.94c.42,0,.75,.34,.75,.75s-.34,.75-.75,.75Z"/>
      <path d="M18.81,48.39c-.42,0-.75-.34-.75-.75v-8.44h-3.04c-.42,0-.75-.34-.75-.75v-5.12c0-.42,.34-.75,.75-.75H52.7c.42,0,.75,.34,.75,.75s-.34,.75-.75,.75H15.77v3.61h3.04c.42,0,.75,.34,.75,.75v9.19c0,.42-.34,.75-.75,.75Z"/>
      <path d="M18.81,56.06h-3.79c-.42,0-.75-.34-.75-.75s.34-.75,.75-.75h3.04v-3.89c0-.42,.34-.75,.75-.75s.75,.34,.75,.75v4.65c0,.42-.34,.75-.75,.75Z"/>
      <path d="M31.15,56.06c-.42,0-.75-.34-.75-.75v-10.18c0-.42,.34-.75,.75-.75s.75,.34,.75,.75v10.18c0,.42-.34,.75-.75,.75Z"/>
      <path d="M23.19,56.06c-.42,0-.75-.34-.75-.75v-13.03c0-2.61,2.12-4.74,4.73-4.74s4.73,2.13,4.73,4.74c0,.42-.34,.75-.75,.75s-.75-.34-.75-.75c0-1.78-1.45-3.23-3.23-3.23s-3.23,1.45-3.23,3.23v13.03c0,.42-.34,.75-.75,.75Z"/>
      <path d="M55.57,56.06c-.42,0-.75-.34-.75-.75v-13.03c0-1.78-1.45-3.23-3.23-3.23s-3.23,1.45-3.23,3.23v4.52c0,.42-.34,.75-.75,.75s-.75-.34-.75-.75v-4.52c0-2.61,2.12-4.74,4.73-4.74s4.73,2.13,4.73,4.74v13.03c0,.42-.34,.75-.75,.75Z"/>
      <path d="M47.61,56.06c-.42,0-.75-.34-.75-.75v-5.78c0-.42,.34-.75,.75-.75s.75,.34,.75,.75v5.78c0,.42-.34,.75-.75,.75Z"/>
      <path d="M43.4,56.06c-.42,0-.75-.34-.75-.75v-13.03c0-1.78-1.45-3.23-3.23-3.23s-3.23,1.45-3.23,3.23v13.03c0,.42-.34,.75-.75,.75s-.75-.34-.75-.75v-13.03c0-2.61,2.12-4.74,4.73-4.74s4.73,2.13,4.73,4.74v13.03c0,.42-.34,.75-.75,.75Z"/>
      <path d="M63.82,59.99H15.02c-.42,0-.75-.34-.75-.75s.34-.75,.75-.75H63.82c.42,0,.75,.34,.75,.75s-.34,.75-.75,.75Z"/>
      <path d="M67.13,70.57H11.64c-.42,0-.75-.34-.75-.75v-5.91c0-.42,.34-.75,.75-.75H51.19c.42,0,.75,.34,.75,.75s-.34,.75-.75,.75H12.4v4.41h53.98v-4.41h-11.4c-.42,0-.75-.34-.75-.75s.34-.75,.75-.75h12.15c.42,0,.75,.34,.75,.75v5.91c0,.42-.34,.75-.75,.75Z"/>
      <path d="M29.83,29.83h-6.29c-.42,0-.75-.34-.75-.75v-2.89c0-.24,.12-.47,.31-.61l15.88-11.43c.26-.19,.62-.19,.88,0l14.1,10.15c.34,.24,.41,.71,.17,1.05-.24,.34-.71,.41-1.05,.17l-13.66-9.83-15.13,10.89v1.75h5.54c.42,0,.75,.34,.75,.75s-.34,.75-.75,.75Z"/>
      <path d="M55.22,29.83h-16.69c-.42,0-.75-.34-.75-.75s.34-.75,.75-.75h15.93v-1.47c0-.42,.34-.75,.75-.75s.75,.34,.75,.75v2.23c0,.42-.34,.75-.75,.75Z"/>
      <path d="M35.44,29.83h-3.05c-.42,0-.75-.34-.75-.75s.34-.75,.75-.75h3.05c.42,0,.75,.34,.75,.75s-.34,.75-.75,.75Z"/>
      <g>
        <path class="cls-2" d="M14.74,90h-.75c-.42,0-.75-.34-.75-.75s.34-.75,.75-.75h.75c.42,0,.75,.34,.75,.75s-.34,.75-.75,.75Zm-3.76,0h-.75c-.42,0-.75-.34-.75-.75s.34-.75,.75-.75h.75c.42,0,.75,.34,.75,.75s-.34,.75-.75,.75Zm-3.76,0h-.75c-.42,0-.75-.34-.75-.75s.34-.75,.75-.75h.75c.42,0,.75,.34,.75,.75s-.34,.75-.75,.75Z"/>
        <path class="cls-2" d="M35.07,90H18.15c-.42,0-.75-.34-.75-.75s.34-.75,.75-.75h16.92c.42,0,.75,.34,.75,.75s-.34,.75-.75,.75Z"/>
      </g>
      <g>
        <path class="cls-2" d="M79.25,66.72c-.42,0-.75-.34-.75-.75v-10.42c0-.42,.34-.75,.75-.75s.75,.34,.75,.75v10.42c0,.42-.34,.75-.75,.75Z"/>
        <path class="cls-2" d="M79.25,52.46c-.42,0-.75-.34-.75-.75v-4.07c0-.42,.34-.75,.75-.75s.75,.34,.75,.75v4.07c0,.42-.34,.75-.75,.75Z"/>
      </g>
    </g>
  </g>
</svg>