<?xml version="1.0" encoding="UTF-8"?>
<svg id="Layer_2" data-name="Layer 2" xmlns="http://www.w3.org/2000/svg" viewBox="0 0 88.82 79.63">
  <defs>
    <style>
      .cls-1 {
        fill: #fff;
      }

      .cls-2 {
        fill: #2354cf;
      }
    </style>
  </defs>
  <g id="Layer_1-2" data-name="Layer 1">
    <g>
      <g>
        <polygon class="cls-1" points="45.41 43.95 76.01 54.7 68.24 58.52 80.3 70.59 72.03 78.86 59.99 66.77 56.17 74.54 45.41 43.95"/>
        <circle class="cls-1" cx="37.86" cy="36.2" r="20.93"/>
        <circle class="cls-1" cx="37.86" cy="36.2" r="29.18"/>
        <path d="M37.86,57.99c-11.97,0-21.71-9.74-21.71-21.71,0-8.37,4.9-16.09,12.48-19.65,.39-.18,.85-.02,1.03,.37,.18,.39,.02,.85-.37,1.03-7.04,3.31-11.59,10.47-11.59,18.25,0,11.11,9.04,20.15,20.15,20.15,1.83,0,3.65-.25,5.39-.73,.41-.11,.84,.13,.96,.54,.11,.41-.13,.84-.54,.96-1.88,.52-3.84,.79-5.81,.79Z"/>
        <path d="M58.18,42.1c-.06,0-.12,0-.19-.02-.42-.1-.67-.52-.57-.94,.39-1.58,.59-3.21,.59-4.85,0-11.11-9.04-20.15-20.15-20.15-1.5,0-3,.17-4.46,.49-.42,.1-.83-.17-.93-.59-.09-.42,.17-.83,.59-.93,1.57-.35,3.18-.53,4.8-.53,11.97,0,21.71,9.74,21.71,21.7,0,1.76-.21,3.52-.63,5.22-.09,.35-.4,.59-.75,.59Z"/>
        <path d="M67.12,37.06c-.43,0-.78-.35-.78-.78,0-14.82-11.11-27.01-25.85-28.36-.43-.04-.74-.42-.7-.84,.04-.43,.42-.73,.84-.7,15.54,1.42,27.26,14.28,27.26,29.91,0,.43-.35,.78-.78,.78Z"/>
        <path d="M72.03,79.63c-.21,0-.4-.08-.55-.23l-8.86-8.86c-.3-.3-.3-.79,0-1.1s.79-.3,1.1,0l8.31,8.31,7.17-7.17-11.52-11.52c-.18-.18-.26-.43-.22-.68,.04-.25,.2-.46,.42-.57l6.11-3.01-14.81-5.21c-.4-.14-.62-.59-.47-.99,.14-.4,.58-.62,.99-.48l16.56,5.82c.29,.1,.5,.37,.52,.69,.02,.31-.15,.6-.43,.74l-6.8,3.34,11.3,11.3c.3,.3,.3,.79,0,1.1l-8.27,8.27c-.15,.15-.34,.23-.55,.23Z"/>
        <path d="M56.17,75.32s-.03,0-.05,0c-.31-.02-.58-.22-.69-.52l-10.75-30.59c-.1-.28-.03-.6,.18-.81,.21-.21,.53-.28,.81-.18l11.14,3.91c.4,.14,.62,.59,.47,.99-.14,.4-.58,.62-.99,.48l-9.61-3.38,9.6,27.32,3.01-6.11c.19-.38,.65-.54,1.04-.35,.38,.19,.54,.65,.35,1.04l-3.82,7.77c-.13,.27-.4,.43-.7,.43Z"/>
        <rect x="36.99" y="6.16" width="1.73" height="1.73" rx=".86" ry=".86"/>
        <g>
          <path d="M35.16,65.95s-.04,0-.06,0c-9.32-.85-17.82-6.13-22.75-14.13-.2-.33-.1-.75,.23-.95,.32-.2,.75-.1,.95,.23,4.7,7.62,12.81,12.66,21.7,13.48,.38,.04,.66,.37,.63,.75-.03,.36-.33,.63-.69,.63Z"/>
          <path d="M11.13,48.74c-.26,0-.52-.15-.63-.41-1.72-3.85-2.59-7.96-2.59-12.21,0-.38,.31-.69,.69-.69s.69,.31,.69,.69c0,4.06,.83,7.97,2.47,11.65,.16,.35,0,.76-.35,.91-.09,.04-.19,.06-.28,.06Z"/>
          <rect x="36.99" y="64.52" width="1.73" height="1.73" rx=".86" ry=".86" transform="translate(75.71 130.76) rotate(-180)"/>
        </g>
        <path d="M32.98,28.82h5.29c2.92,0,4.83,1.53,4.83,4.08,0,1.39-.6,2.51-1.85,3.15,1.49,.6,2.3,1.84,2.3,3.57,0,2.74-1.97,4.33-4.95,4.33h-5.62v-15.13Zm1.99,1.82v4.58h3.4c1.82,0,2.72-.97,2.72-2.32s-1.02-2.26-2.84-2.26h-3.28Zm0,6.45v5.02h3.63c1.82,0,2.94-1.02,2.94-2.51s-.95-2.51-3.03-2.51h-3.54Z"/>
      </g>
      <path class="cls-2" d="M82.94,77.37c-.19,0-.37-.07-.52-.2-.32-.29-.34-.78-.06-1.1l.46-.51c.29-.32,.78-.34,1.1-.06,.32,.29,.34,.78,.06,1.1l-.46,.51c-.15,.17-.36,.26-.58,.26Zm2.32-2.57c-.19,0-.37-.07-.52-.2-.32-.29-.34-.78-.06-1.1l.46-.51c.29-.32,.78-.34,1.1-.06,.32,.29,.34,.78,.06,1.1l-.46,.51c-.15,.17-.36,.26-.58,.26Zm2.32-2.57c-.19,0-.37-.07-.52-.2-.32-.29-.34-.78-.06-1.1l.46-.51c.29-.32,.78-.34,1.1-.06,.32,.29,.34,.78,.06,1.1l-.46,.51c-.15,.17-.36,.26-.58,.26Zm-.49-2.5c-.2,0-.4-.08-.55-.23l-.49-.49c-.3-.3-.3-.79,0-1.1s.79-.3,1.1,0l.49,.49c.3,.3,.3,.79,0,1.1-.15,.15-.35,.23-.55,.23Zm-2.45-2.45c-.2,0-.4-.08-.55-.23l-.49-.49c-.3-.3-.3-.79,0-1.1,.3-.3,.79-.3,1.1,0l.49,.49c.3,.3,.3,.79,0,1.1-.15,.15-.35,.23-.55,.23Zm-2.45-2.45c-.2,0-.4-.08-.55-.23l-.49-.49c-.3-.3-.3-.79,0-1.1s.79-.3,1.1,0l.49,.49c.3,.3,.3,.79,0,1.1-.15,.15-.35,.23-.55,.23Zm-2.45-2.45c-.2,0-.4-.08-.55-.23l-.49-.49c-.3-.3-.3-.79,0-1.1s.79-.3,1.1,0l.49,.49c.3,.3,.3,.79,0,1.1-.15,.15-.35,.23-.55,.23Z"/>
      <g>
        <path class="cls-2" d="M27.03,69.52c-.07,0-.13,0-.2-.03-3.78-1.01-7.36-2.63-10.65-4.81-6.52-4.32-11.37-10.49-14.03-17.82-.15-.4,.06-.85,.47-.99,.4-.15,.85,.06,.99,.47,2.54,7.02,7.18,12.92,13.43,17.06,3.15,2.09,6.58,3.64,10.19,4.6,.41,.11,.66,.54,.55,.95-.09,.35-.41,.58-.75,.58Z"/>
        <path class="cls-2" d="M1.17,40.67c-.38,0-.71-.27-.77-.66-.04-.23-.07-.47-.1-.7-.06-.42,.24-.82,.67-.87,.42-.05,.82,.24,.87,.67,.03,.22,.06,.45,.1,.67,.07,.42-.22,.82-.65,.89-.04,0-.08,0-.12,0Zm-.36-3.44c-.41,0-.75-.32-.77-.73-.01-.24-.02-.47-.03-.71-.02-.43,.32-.79,.75-.8,.41-.02,.79,.32,.8,.75,0,.23,.02,.45,.03,.68,.02,.43-.3,.79-.73,.82-.01,0-.03,0-.04,0Zm-.02-3.46s-.02,0-.03,0c-.43-.02-.76-.38-.74-.81,0-.24,.02-.47,.04-.71,.03-.43,.38-.75,.82-.73,.43,.03,.75,.39,.73,.82-.01,.23-.02,.45-.03,.68-.02,.42-.36,.74-.78,.74Zm.31-3.44s-.07,0-.11,0c-.42-.06-.72-.45-.66-.88,.03-.23,.07-.47,.11-.7,.07-.42,.47-.72,.89-.64,.42,.07,.71,.47,.64,.89-.04,.22-.07,.45-.1,.67-.05,.39-.39,.67-.77,.67Zm.65-3.4c-.06,0-.12,0-.18-.02-.42-.1-.67-.52-.57-.94,.06-.23,.11-.46,.17-.69,.11-.42,.53-.67,.95-.55,.41,.11,.66,.53,.55,.95-.06,.22-.11,.44-.17,.66-.09,.36-.4,.59-.75,.59Z"/>
      </g>
      <g>
        <path class="cls-2" d="M25.04,3.89c-.31,0-.61-.19-.73-.5-.15-.4,.05-.85,.45-1,4.14-1.59,8.5-2.39,12.96-2.39,.43,0,.78,.35,.78,.78s-.35,.78-.78,.78c-4.28,0-8.45,.77-12.41,2.29-.09,.04-.19,.05-.28,.05Z"/>
        <path class="cls-2" d="M73.15,36.98c-.43,0-.78-.35-.78-.78,0-.23,0-.45,0-.68,0-.43,.33-.78,.76-.79h.02c.42,0,.77,.34,.78,.76,0,.24,0,.47,0,.71,0,.43-.35,.78-.78,.78Zm-.17-3.45c-.39,0-.73-.3-.77-.7-.02-.23-.05-.45-.07-.67-.05-.43,.26-.81,.68-.86,.43-.05,.81,.26,.86,.68,.03,.23,.05,.47,.07,.7,.04,.43-.27,.81-.7,.85-.03,0-.05,0-.08,0Zm-.5-3.42c-.36,0-.69-.26-.76-.63-.04-.22-.09-.44-.14-.66-.09-.42,.17-.83,.59-.92,.42-.09,.83,.17,.92,.59,.05,.23,.1,.46,.14,.69,.08,.42-.19,.83-.61,.91-.05,.01-.1,.02-.15,.02Zm-.83-3.36c-.33,0-.64-.22-.74-.55-.06-.22-.13-.43-.2-.65-.13-.41,.09-.85,.5-.98,.41-.13,.85,.09,.98,.5,.07,.23,.14,.45,.21,.68,.12,.41-.11,.84-.52,.97-.07,.02-.15,.03-.22,.03Zm-1.16-3.26c-.31,0-.59-.18-.72-.48-.09-.21-.17-.42-.26-.62-.17-.39,0-.85,.4-1.02,.39-.17,.85,0,1.02,.4,.09,.22,.19,.44,.28,.65,.16,.4-.03,.85-.42,1.01-.1,.04-.2,.06-.29,.06Zm-1.47-3.13c-.28,0-.55-.15-.69-.41-.11-.2-.21-.4-.32-.59-.21-.37-.08-.85,.3-1.06,.37-.21,.85-.08,1.06,.3,.12,.21,.23,.42,.34,.62,.2,.38,.06,.85-.32,1.05-.12,.06-.24,.09-.36,.09Zm-1.77-2.97c-.25,0-.5-.12-.65-.35-.12-.19-.25-.38-.38-.56-.25-.35-.16-.84,.2-1.08,.35-.25,.84-.16,1.08,.19,.13,.19,.27,.39,.4,.59,.24,.36,.14,.84-.22,1.08-.13,.09-.28,.13-.43,.13Zm-2.06-2.78c-.22,0-.45-.1-.6-.29-.14-.17-.29-.35-.43-.52-.28-.33-.24-.82,.09-1.09,.32-.28,.81-.24,1.09,.09,.15,.18,.3,.36,.45,.54,.27,.33,.22,.82-.11,1.09-.14,.12-.32,.17-.49,.17Zm-2.31-2.57c-.2,0-.4-.08-.55-.23-.16-.16-.32-.32-.48-.47-.31-.3-.32-.79-.02-1.1,.3-.31,.79-.32,1.1-.02,.17,.16,.34,.33,.5,.5,.3,.3,.3,.8,0,1.1-.15,.15-.35,.22-.55,.22Zm-2.55-2.33c-.17,0-.35-.06-.5-.18-.17-.14-.35-.29-.53-.43-.33-.27-.39-.76-.12-1.09,.27-.33,.76-.39,1.09-.12,.18,.15,.37,.29,.55,.44,.33,.27,.38,.76,.1,1.09-.15,.19-.38,.28-.6,.28Zm-2.77-2.07c-.15,0-.3-.04-.43-.13-.19-.13-.37-.25-.56-.37-.36-.23-.46-.71-.23-1.07,.23-.36,.71-.46,1.07-.23,.2,.13,.39,.26,.59,.39,.35,.24,.45,.72,.21,1.08-.15,.22-.39,.34-.64,.34Zm-2.96-1.8c-.12,0-.25-.03-.37-.09-.2-.11-.39-.21-.59-.31-.38-.2-.53-.66-.33-1.05,.2-.38,.66-.53,1.05-.34,.21,.11,.42,.22,.63,.33,.38,.2,.52,.68,.31,1.05-.14,.26-.41,.41-.68,.41Zm-3.11-1.5c-.1,0-.2-.02-.3-.06-.21-.09-.42-.17-.62-.26-.4-.16-.59-.61-.43-1.01,.16-.4,.61-.59,1.01-.43,.22,.09,.43,.18,.65,.27,.4,.17,.58,.62,.41,1.02-.12,.3-.41,.48-.72,.48Zm-3.25-1.19c-.08,0-.15-.01-.23-.04-.22-.07-.43-.13-.65-.19-.41-.12-.65-.55-.53-.96,.12-.41,.55-.65,.96-.53,.23,.07,.45,.13,.68,.2,.41,.13,.64,.56,.51,.97-.1,.33-.41,.55-.74,.55Zm-3.35-.86c-.05,0-.1,0-.16-.02l-.36-.07c-.42-.08-.7-.49-.61-.91,.08-.42,.49-.69,.91-.61l.37,.07c.42,.09,.69,.5,.6,.92-.08,.37-.4,.62-.76,.62Z"/>
      </g>
    </g>
  </g>
</svg>