<?xml version="1.0" encoding="UTF-8"?>
<svg id="Layer_2" data-name="Layer 2" xmlns="http://www.w3.org/2000/svg" viewBox="0 0 95 90">
  <defs>
    <style>
      .cls-1 {
        fill: #fff;
      }

      .cls-2 {
        fill: #2354cf;
      }
    </style>
  </defs>
  <g id="Layer_1-2" data-name="Layer 1">
    <g>
      <rect class="cls-1" x="6.51" y="54.49" width="14.11" height="23.85"/>
      <rect class="cls-1" x=".8" y="57" width="5.72" height="19.19"/>
      <ellipse class="cls-1" cx="54.38" cy="40.34" rx="33.13" ry="33.15"/>
      <path class="cls-1" d="M53.81,.8h.52c4.29,0,7.78,3.48,7.78,7.78v1.17c0,.94-.76,1.7-1.7,1.7h-12.67c-.94,0-1.7-.76-1.7-1.7v-1.17c0-4.29,3.48-7.78,7.78-7.78Z"/>
      <path class="cls-1" d="M63.16,67.45l11.71-3.87c2.33-.77,4.84,.5,5.61,2.83h0c.77,2.33-.5,4.84-2.82,5.61l-19.13,6.32-9.52,3.14s-7.23,2.09-16-1.45c-9.47-3.82-12.37-5.12-12.37-5.12v-17.9s11.91-1.78,21.53,4"/>
      <path d="M25.4,57.54c-.28,0-.54-.14-.69-.4-2.93-5.12-4.47-10.96-4.47-16.89,0-15.55,10.5-29.11,25.53-32.98,.43-.11,.86,.15,.97,.57,.11,.43-.15,.86-.57,.97-14.33,3.69-24.34,16.62-24.34,31.44,0,5.65,1.47,11.22,4.26,16.1,.22,.38,.09,.87-.3,1.09-.12,.07-.26,.11-.39,.11Z"/>
      <path d="M77.88,64.46c-.2,0-.4-.08-.56-.23-.31-.31-.31-.81,0-1.13,6.06-6.12,9.4-14.23,9.4-22.85,0-15.05-10.2-28.02-24.8-31.55-.43-.1-.69-.53-.59-.96,.1-.43,.53-.69,.96-.59,15.32,3.7,26.02,17.31,26.02,33.1,0,9.04-3.5,17.55-9.86,23.97-.16,.16-.36,.24-.56,.24Z"/>
      <path class="cls-2" d="M90.43,57.54c-.11,0-.23-.02-.34-.08-.4-.19-.57-.66-.38-1.06,2.46-5.23,3.7-10.83,3.7-16.65,0-8.43-2.64-16.47-7.63-23.23-.26-.35-.19-.85,.17-1.11,.35-.26,.85-.19,1.11,.17,5.19,7.04,7.94,15.4,7.94,24.18,0,6.06-1.3,11.88-3.85,17.32-.14,.29-.42,.46-.72,.46Z"/>
      <path class="cls-2" d="M82.9,12.71c-.21,0-.41-.08-.57-.24-.2-.21-.4-.41-.61-.61-.31-.31-.32-.81,0-1.13,.31-.31,.81-.32,1.13,0,.21,.21,.42,.42,.63,.63,.31,.31,.3,.82-.01,1.13-.15,.15-.35,.23-.56,.23Zm-3.23-2.97c-.18,0-.36-.06-.51-.18-.22-.18-.44-.36-.67-.54-.34-.27-.4-.77-.13-1.12,.27-.34,.77-.4,1.12-.13,.23,.18,.47,.37,.7,.56,.34,.28,.39,.78,.11,1.12-.16,.19-.39,.29-.61,.29Zm-3.53-2.6c-.15,0-.3-.04-.44-.13-.24-.16-.48-.31-.72-.46-.37-.23-.49-.72-.25-1.1,.23-.37,.72-.49,1.1-.25,.25,.16,.51,.32,.76,.48,.37,.24,.47,.74,.23,1.1-.15,.23-.41,.36-.67,.36Z"/>
      <path class="cls-2" d="M14.42,37.97s-.03,0-.05,0c-.44-.03-.77-.41-.74-.85,.81-12.71,7.68-24.48,18.37-31.48,.37-.24,.86-.14,1.1,.23,.24,.37,.14,.86-.23,1.1-10.27,6.73-16.87,18.04-17.65,30.25-.03,.42-.38,.75-.79,.75Z"/>
      <path d="M6.51,79.13c-.44,0-.8-.36-.8-.8v-11.92c0-.44,.36-.8,.8-.8s.8,.36,.8,.8v11.92c0,.44-.36,.8-.8,.8Z"/>
      <path d="M20.62,79.13H10.51c-.44,0-.8-.36-.8-.8s.36-.8,.8-.8h9.32v-22.26H7.31v5.72c0,.44-.36,.8-.8,.8s-.8-.36-.8-.8v-6.52c0-.44,.36-.8,.8-.8h14.11c.44,0,.8,.36,.8,.8v23.85c0,.44-.36,.8-.8,.8Z"/>
      <path d="M42.15,61.8c-.14,0-.28-.04-.41-.11-9.27-5.56-20.89-3.91-21-3.89-.43,.06-.84-.23-.9-.67s.23-.84,.67-.9c.5-.08,12.31-1.75,22.06,4.1,.38,.23,.5,.71,.27,1.09-.15,.25-.41,.39-.68,.39Z"/>
      <path d="M59.2,70.68h-20.15c-.44,0-.8-.36-.8-.8s.36-.8,.8-.8h20.15c2.01,0,3.64-1.64,3.64-3.65s-1.63-3.65-3.64-3.65h-11.49c-.44,0-.8-.36-.8-.8s.36-.8,.8-.8h11.49c2.89,0,5.24,2.35,5.24,5.24s-2.35,5.24-5.24,5.24Z"/>
      <path d="M43.54,82.89c-2.91,0-6.7-.46-10.84-2.13-9.38-3.78-12.37-5.12-12.4-5.13-.4-.18-.58-.65-.4-1.05,.18-.4,.65-.58,1.05-.4,.03,.01,3.01,1.34,12.34,5.11,8.39,3.39,15.42,1.44,15.49,1.42l28.62-9.45c1.91-.63,2.95-2.7,2.32-4.6-.63-1.91-2.69-2.95-4.6-2.32l-11.71,3.87c-.42,.14-.87-.09-1-.51-.14-.42,.09-.87,.51-1.01l11.71-3.87c2.74-.91,5.71,.59,6.61,3.33,.9,2.74-.59,5.71-3.33,6.62l-28.65,9.46c-.18,.05-2.36,.66-5.71,.66Z"/>
      <path d="M6.51,57.8H.8c-.44,0-.8-.36-.8-.8s.36-.8,.8-.8H6.51c.44,0,.8,.36,.8,.8s-.36,.8-.8,.8Z"/>
      <path d="M6.51,76.99H.8c-.44,0-.8-.36-.8-.8s.36-.8,.8-.8H6.51c.44,0,.8,.36,.8,.8s-.36,.8-.8,.8Z"/>
      <path d="M49,22.89c-.18,0-.36-.06-.5-.18-2.07-1.69-3.26-4.19-3.26-6.84v-7.03c0-4.87,3.96-8.84,8.83-8.84s8.83,3.96,8.83,8.84v7.03c0,2.61-1.14,4.99-3.22,6.71-.34,.28-.84,.23-1.12-.11-.28-.34-.23-.84,.11-1.12,1.7-1.41,2.64-3.36,2.64-5.48v-7.03c0-3.99-3.25-7.24-7.24-7.24s-7.24,3.25-7.24,7.24v7.03c0,2.18,.98,4.22,2.68,5.61,.34,.28,.39,.78,.11,1.12-.16,.19-.39,.29-.62,.29Z"/>
      <path d="M36.11,51.3c-.43,0-.79-.35-.8-.78,0-.07-.14-7.18,0-13.45,.15-6.89,5.2-7.98,5.25-7.99l7.64-2.26v-1.61c0-.44,.36-.8,.8-.8s.8,.36,.8,.8v2.2c0,.35-.23,.66-.57,.76l-8.28,2.45c-.22,.05-3.92,.91-4.04,6.48-.14,6.24,0,13.32,0,13.39,0,.44-.34,.8-.78,.81h-.02Z"/>
      <path d="M72.05,51.3h-.02c-.44,0-.79-.37-.78-.81,0-.07,.14-7.15,0-13.39-.12-5.57-3.82-6.43-3.98-6.47l-8.35-2.47c-.34-.1-.57-.41-.57-.76v-5.45c0-.44,.36-.8,.8-.8s.8,.36,.8,.8v4.86l7.71,2.28h0s5.03,1.1,5.18,7.97c.14,6.28,0,13.38,0,13.45,0,.43-.36,.78-.8,.78Z"/>
      <path d="M43.29,53.6c-.44,0-.8-.36-.8-.8v-14.21c0-.44,.36-.8,.8-.8s.8,.36,.8,.8v14.21c0,.44-.36,.8-.8,.8Z"/>
      <path d="M64.33,41.84c-.44,0-.8-.36-.8-.8v-2.45c0-.44,.36-.8,.8-.8s.8,.36,.8,.8v2.45c0,.44-.36,.8-.8,.8Z"/>
      <path d="M64.33,53.6c-.44,0-.8-.36-.8-.8v-8.74c0-.44,.36-.8,.8-.8s.8,.36,.8,.8v8.74c0,.44-.36,.8-.8,.8Z"/>
      <path class="cls-2" d="M41.42,90h0c-.29,0-.59,0-.9-.02-.44-.02-.78-.39-.76-.83,.02-.44,.4-.77,.83-.77,.29,.01,.58,.02,.85,.02,.44,0,.79,.36,.79,.8,0,.44-.36,.79-.8,.79Zm3.5-.19c-.4,0-.74-.3-.79-.7-.05-.44,.26-.83,.7-.89,.29-.03,.58-.07,.84-.12,.44-.07,.84,.23,.91,.66,.07,.43-.23,.84-.66,.91-.28,.04-.58,.09-.9,.12-.03,0-.06,0-.1,0Zm-7.87-.16s-.08,0-.12,0c-.29-.05-.59-.1-.89-.15-.43-.08-.72-.49-.64-.93,.08-.43,.5-.72,.93-.64,.28,.05,.57,.1,.84,.14,.43,.07,.73,.47,.66,.91-.06,.39-.4,.67-.78,.67Zm12.15-.78c-.33,0-.65-.21-.76-.55-.14-.42,.09-.87,.51-1.01l.83-.28c.42-.14,.87,.09,1,.51,.14,.42-.09,.87-.51,1.01l-.83,.28c-.08,.03-.17,.04-.25,.04Zm-16.43-.19c-.08,0-.15-.01-.23-.03-.28-.09-.57-.17-.86-.27-.42-.14-.65-.59-.51-1,.14-.42,.58-.65,1-.51,.28,.09,.55,.18,.82,.26,.42,.13,.66,.57,.53,.99-.1,.34-.42,.57-.76,.57Zm20.6-1.19c-.33,0-.65-.21-.76-.55-.14-.42,.09-.87,.51-1.01l.83-.28c.42-.14,.87,.09,1,.51,.14,.42-.09,.87-.51,1.01l-.83,.28c-.08,.03-.17,.04-.25,.04Zm-24.71-.34c-.11,0-.22-.02-.32-.07-.27-.12-.54-.24-.82-.37-.4-.19-.57-.66-.38-1.06,.19-.4,.66-.57,1.06-.38,.26,.12,.52,.24,.78,.36,.4,.18,.58,.65,.4,1.05-.13,.3-.42,.47-.73,.47Zm28.88-1.04c-.33,0-.65-.21-.76-.55-.14-.42,.09-.87,.51-1.01l.83-.28c.42-.14,.87,.09,1,.51,.14,.42-.09,.87-.51,1.01l-.83,.28c-.08,.03-.17,.04-.25,.04Zm4.17-1.38c-.33,0-.65-.21-.76-.55-.14-.42,.09-.87,.51-1.01l.83-.28c.42-.14,.87,.09,1,.51,.14,.42-.09,.87-.51,1.01l-.83,.28c-.08,.03-.17,.04-.25,.04Z"/>
      <path class="cls-2" d="M67.18,82.93c-.33,0-.65-.21-.76-.55-.14-.42,.09-.87,.51-1.01l9.08-3c.42-.14,.87,.09,1,.51,.14,.42-.09,.87-.51,1.01l-9.08,3c-.08,.03-.17,.04-.25,.04Z"/>
    </g>
  </g>
</svg>