<?xml version="1.0" encoding="UTF-8"?>
<svg id="Layer_2" data-name="Layer 2" xmlns="http://www.w3.org/2000/svg" viewBox="0 0 80 80">
  <defs>
    <style>
      .cls-1 {
        fill: #fff;
      }

      .cls-2 {
        fill: #2354cf;
      }
    </style>
  </defs>
  <g id="Layer_1-2" data-name="Layer 1">
    <g>
      <polyline class="cls-1" points="46.76 12.24 53.46 8.39 40.05 .68 26.63 8.39 40.05 16.09 44.28 13.66"/>
      <polygon class="cls-1" points="53.46 52.66 40.05 60.36 26.63 52.66 26.63 68.06 40.05 75.77 53.46 68.06 53.46 52.66"/>
      <polyline class="cls-1" points="59.64 42.62 73.05 34.91 73.05 19.51 59.64 11.8 46.22 19.51 59.64 27.21 59.64 42.62"/>
      <polygon class="cls-1" points="59.64 49.64 73.05 41.94 73.05 57.34 59.64 65.05 59.64 49.64"/>
      <polygon class="cls-1" points="33.86 19.51 20.45 11.8 7.04 19.51 7.04 34.91 20.45 42.62 20.45 27.21 33.86 19.51"/>
      <polyline class="cls-1" points="20.45 65.05 20.45 49.64 7.04 41.94 7.04 57.34 20.45 65.05"/>
      <polyline class="cls-1" points="26.63 42.62 26.63 45.63 40.05 53.34 53.46 45.63 53.46 30.23 40.05 22.52 26.63 30.23 26.63 39.84"/>
      <g>
        <path d="M40.05,16.77c-.12,0-.24-.03-.34-.09l-13.41-7.7c-.21-.12-.34-.35-.34-.59s.13-.47,.34-.59L39.7,.09c.21-.12,.47-.12,.69,0l13.41,7.7c.21,.12,.34,.35,.34,.59s-.13,.47-.34,.59l-6.7,3.85c-.33,.19-.75,.08-.94-.25-.19-.33-.08-.74,.25-.93l5.67-3.26L40.05,1.47l-12.04,6.92,12.04,6.92,3.89-2.24c.33-.19,.75-.08,.94,.25,.19,.33,.08,.74-.25,.93l-4.23,2.43c-.11,.06-.22,.09-.34,.09Z"/>
        <g>
          <path d="M40.05,76.45c-.12,0-.24-.03-.34-.09l-13.41-7.7c-.21-.12-.34-.35-.34-.59v-15.41c0-.24,.13-.47,.34-.59,.21-.12,.47-.12,.69,0l13.07,7.51,13.07-7.51c.21-.12,.47-.12,.69,0,.21,.12,.34,.35,.34,.59v15.41c0,.24-.13,.47-.34,.59l-13.41,7.7c-.11,.06-.22,.09-.34,.09Zm-12.73-8.78l12.73,7.31,12.73-7.31v-13.83l-12.38,7.11c-.21,.12-.47,.12-.69,0l-12.38-7.11v13.83Z"/>
          <path d="M40.05,76.45c-.38,0-.69-.31-.69-.68v-6.58c0-.38,.31-.68,.69-.68s.69,.31,.69,.68v6.58c0,.38-.31,.68-.69,.68Z"/>
          <path d="M40.04,67.16h0c-.38,0-.69-.31-.69-.68v-6.12c0-.38,.31-.68,.69-.68h0c.38,0,.69,.31,.69,.68v6.12c0,.38-.31,.68-.69,.68Z"/>
        </g>
        <g>
          <path d="M46.22,20.19c-.24,0-.47-.12-.59-.34-.19-.33-.08-.74,.25-.93l13.41-7.7c.21-.12,.47-.12,.69,0l3.18,1.82c.33,.19,.44,.6,.25,.93-.19,.33-.6,.44-.94,.25l-2.83-1.63-13.07,7.51c-.11,.06-.23,.09-.34,.09Z"/>
          <path d="M59.64,43.3c-.24,0-.47-.12-.59-.34-.19-.33-.08-.74,.25-.93l13.07-7.51v-14.62l-7.56-4.34c-.33-.19-.44-.6-.25-.93,.19-.33,.61-.44,.94-.25l7.9,4.54c.21,.12,.34,.35,.34,.59v15.41c0,.24-.13,.47-.34,.59l-13.41,7.7c-.11,.06-.23,.09-.34,.09Z"/>
          <path d="M59.64,27.89c-.12,0-.24-.03-.34-.09l-13.41-7.7c-.33-.19-.44-.6-.25-.93,.19-.33,.61-.44,.94-.25l13.07,7.51,13.07-7.51c.33-.19,.75-.08,.94,.25,.19,.33,.08,.74-.25,.93l-13.41,7.7c-.11,.06-.22,.09-.34,.09Z"/>
          <path d="M59.64,36.38c-.38,0-.69-.31-.69-.68v-8.49c0-.38,.31-.68,.69-.68s.69,.31,.69,.68v8.49c0,.38-.31,.68-.69,.68Z"/>
          <path d="M59.64,43.3c-.38,0-.69-.31-.69-.68v-4.19c0-.38,.31-.68,.69-.68s.69,.31,.69,.68v4.19c0,.38-.31,.68-.69,.68Z"/>
        </g>
        <g>
          <path d="M59.64,65.73c-.24,0-.47-.12-.59-.34-.19-.33-.08-.74,.25-.93l13.07-7.51v-13.83l-6.17,3.54c-.33,.19-.75,.08-.94-.25-.19-.33-.08-.74,.25-.93l7.19-4.13c.21-.12,.48-.12,.69,0,.21,.12,.34,.35,.34,.59v15.41c0,.24-.13,.47-.34,.59l-13.41,7.7c-.11,.06-.23,.09-.34,.09Z"/>
          <path d="M59.64,65.73c-.38,0-.69-.31-.69-.68v-15.41c0-.24,.13-.47,.34-.59l3.18-1.82c.33-.19,.75-.08,.94,.25,.19,.33,.08,.74-.25,.93l-2.83,1.63v15.01c0,.38-.31,.68-.69,.68Z"/>
        </g>
        <g>
          <path d="M20.45,43.3c-.12,0-.23-.03-.34-.09l-13.41-7.7c-.21-.12-.34-.35-.34-.59v-15.41c0-.24,.13-.47,.34-.59l13.41-7.7c.21-.12,.47-.12,.69,0l13.41,7.7c.33,.19,.44,.6,.25,.93-.19,.33-.61,.44-.94,.25l-13.07-7.51-12.73,7.31v14.62l13.07,7.51c.33,.19,.44,.6,.25,.93-.13,.22-.36,.34-.59,.34Z"/>
          <path d="M11.49,22.74c-.12,0-.23-.03-.34-.09l-4.45-2.56c-.33-.19-.44-.61-.25-.93,.19-.33,.61-.44,.94-.25l4.45,2.56c.33,.19,.44,.61,.25,.93-.13,.22-.36,.34-.59,.34Z"/>
          <path d="M20.45,27.89c-.12,0-.24-.03-.34-.09l-6.71-3.85c-.33-.19-.44-.6-.25-.93,.19-.33,.61-.44,.94-.25l6.36,3.65,13.07-7.51c.33-.19,.75-.08,.94,.25,.19,.33,.08,.74-.25,.93l-13.41,7.7c-.11,.06-.22,.09-.34,.09Z"/>
          <path d="M20.45,43.3c-.38,0-.69-.31-.69-.68v-15.41c0-.38,.31-.68,.69-.68s.69,.31,.69,.68v15.41c0,.38-.31,.68-.69,.68Z"/>
        </g>
        <path d="M20.45,65.73c-.12,0-.24-.03-.34-.09l-13.41-7.7c-.21-.12-.34-.35-.34-.59v-15.41c0-.24,.13-.47,.34-.59,.21-.12,.47-.12,.69,0l13.41,7.7c.21,.12,.34,.35,.34,.59v15.41c0,.24-.13,.47-.34,.59-.11,.06-.22,.09-.34,.09Zm-12.73-8.78l12.04,6.92v-13.83l-12.04-6.92v13.83Z"/>
        <g>
          <path d="M40.05,54.02c-.12,0-.24-.03-.34-.09l-13.41-7.7c-.21-.12-.34-.35-.34-.59v-3.01c0-.38,.31-.68,.69-.68s.69,.31,.69,.68v2.62l12.73,7.31,12.73-7.31v-14.62l-12.73-7.31-12.73,7.31v9.22c0,.38-.31,.68-.69,.68s-.69-.31-.69-.68v-9.62c0-.24,.13-.47,.34-.59l13.41-7.7c.21-.12,.47-.12,.69,0l13.41,7.7c.21,.12,.34,.35,.34,.59v15.41c0,.24-.13,.47-.34,.59l-13.41,7.7c-.11,.06-.22,.09-.34,.09Z"/>
          <path d="M48.41,33.81c-.24,0-.47-.12-.59-.34-.19-.33-.08-.74,.25-.93l5.05-2.9c.33-.19,.75-.08,.94,.25,.19,.33,.08,.74-.25,.93l-5.05,2.9c-.11,.06-.23,.09-.34,.09Z"/>
          <path d="M40.05,38.61c-.12,0-.24-.03-.34-.09l-13.41-7.7c-.33-.19-.44-.6-.25-.93,.19-.33,.61-.44,.94-.25l13.07,7.51,5.6-3.22c.33-.19,.75-.08,.94,.25,.19,.33,.08,.74-.25,.93l-5.95,3.42c-.11,.06-.22,.09-.34,.09Z"/>
          <path d="M40.05,54.02c-.38,0-.69-.31-.69-.68v-15.41c0-.38,.31-.68,.69-.68s.69,.31,.69,.68v15.41c0,.38-.31,.68-.69,.68Z"/>
        </g>
      </g>
      <path class="cls-2" d="M.69,25.79c-.38,0-.69-.31-.69-.68v-.68c0-.38,.31-.68,.69-.68s.69,.31,.69,.68v.68c0,.38-.31,.68-.69,.68Zm0-3.41c-.38,0-.69-.31-.69-.68v-.68c0-.38,.31-.68,.69-.68s.69,.31,.69,.68v.68c0,.38-.31,.68-.69,.68Zm0-3.41c-.38,0-.69-.31-.69-.68v-.68c0-.38,.31-.68,.69-.68s.69,.31,.69,.68v.68c0,.38-.31,.68-.69,.68Zm1.13-2.76c-.24,0-.47-.12-.59-.34-.19-.33-.08-.74,.25-.93l.59-.34c.33-.19,.75-.08,.94,.25,.19,.33,.08,.74-.25,.93l-.59,.34c-.11,.06-.23,.09-.34,.09Zm2.97-1.71c-.24,0-.47-.12-.59-.34-.19-.33-.08-.74,.25-.93l.59-.34c.33-.19,.75-.08,.94,.25,.19,.33,.08,.74-.25,.93l-.59,.34c-.11,.06-.23,.09-.34,.09Zm2.97-1.7c-.24,0-.47-.12-.59-.34-.19-.33-.08-.74,.25-.93l.59-.34c.33-.19,.75-.08,.94,.25,.19,.33,.08,.74-.25,.93l-.59,.34c-.11,.06-.23,.09-.34,.09Zm2.97-1.7c-.24,0-.47-.12-.59-.34-.19-.33-.08-.74,.25-.93l.59-.34c.33-.19,.75-.08,.94,.25,.19,.33,.08,.74-.25,.93l-.59,.34c-.11,.06-.23,.09-.34,.09Z"/>
      <path class="cls-2" d="M.69,39.11c-.38,0-.69-.31-.69-.68v-9.57c0-.38,.31-.68,.69-.68s.69,.31,.69,.68v9.57c0,.38-.31,.68-.69,.68Z"/>
      <path class="cls-2" d="M79.31,48.45c-.38,0-.69-.31-.69-.68v-.68c0-.38,.31-.68,.69-.68s.69,.31,.69,.68v.68c0,.38-.31,.68-.69,.68Zm0-3.41c-.38,0-.69-.31-.69-.68v-.68c0-.38,.31-.68,.69-.68s.69,.31,.69,.68v.68c0,.38-.31,.68-.69,.68Zm0-3.41c-.38,0-.69-.31-.69-.68v-.68c0-.38,.31-.68,.69-.68s.69,.31,.69,.68v.68c0,.38-.31,.68-.69,.68Zm0-3.41c-.38,0-.69-.31-.69-.68v-.68c0-.38,.31-.68,.69-.68s.69,.31,.69,.68v.68c0,.38-.31,.68-.69,.68Zm0-3.41c-.38,0-.69-.31-.69-.68v-.68c0-.38,.31-.68,.69-.68s.69,.31,.69,.68v.68c0,.38-.31,.68-.69,.68Zm0-3.41c-.38,0-.69-.31-.69-.68v-.68c0-.38,.31-.68,.69-.68s.69,.31,.69,.68v.68c0,.38-.31,.68-.69,.68Z"/>
      <path class="cls-2" d="M58.58,73.06c-.24,0-.48-.13-.6-.35-.18-.33-.06-.74,.27-.93l11.94-6.54c.34-.18,.75-.06,.93,.27,.18,.33,.06,.74-.27,.93l-11.94,6.54c-.11,.06-.22,.08-.33,.08Z"/>
      <path class="cls-2" d="M45.92,80c-.24,0-.48-.13-.6-.35-.18-.33-.06-.74,.27-.93l.6-.33c.33-.18,.75-.06,.93,.27,.18,.33,.06,.74-.27,.93l-.6,.33c-.11,.06-.22,.08-.33,.08Zm3-1.65c-.24,0-.48-.13-.6-.35-.18-.33-.06-.74,.27-.93l.6-.33c.33-.18,.75-.06,.93,.27,.18,.33,.06,.74-.27,.93l-.6,.33c-.1,.06-.22,.08-.33,.08Zm3-1.64c-.24,0-.48-.13-.6-.35-.18-.33-.06-.74,.27-.93l.6-.33c.33-.18,.75-.06,.93,.27,.18,.33,.06,.74-.27,.93l-.6,.33c-.11,.06-.22,.08-.33,.08Zm3-1.65c-.24,0-.48-.13-.6-.35-.18-.33-.06-.74,.27-.93l.6-.33c.33-.18,.75-.06,.93,.27,.18,.33,.06,.74-.27,.93l-.6,.33c-.11,.06-.22,.08-.33,.08Z"/>
    </g>
  </g>
</svg>