<?xml version="1.0" encoding="UTF-8"?>
<svg id="Layer_2" data-name="Layer 2" xmlns="http://www.w3.org/2000/svg" viewBox="0 0 78 78">
  <defs>
    <style>
      .cls-1 {
        fill: #fff;
      }

      .cls-2 {
        fill: #2354cf;
      }
    </style>
  </defs>
  <g id="Layer_1-2" data-name="Layer 1">
    <g>
      <g>
        <g>
          <polyline class="cls-1" points="13.61 30.09 6.25 37.14 6.25 71.56 71.71 71.56 71.71 37.14 64.21 30.09"/>
          <path d="M71.71,72.19H6.25c-.35,0-.63-.28-.63-.63V37.14c0-.17,.07-.34,.19-.46l7.36-7.05c.25-.24,.65-.23,.89,.02,.24,.25,.23,.65-.02,.89l-7.17,6.87v33.52H71.08V37.42l-7.3-6.86c-.25-.24-.27-.64-.03-.89,.24-.25,.64-.27,.89-.03l7.5,7.05c.13,.12,.2,.29,.2,.46v34.42c0,.35-.28,.63-.63,.63Z"/>
        </g>
        <g>
          <line class="cls-1" x1="71.71" y1="37.14" x2="64.21" y2="30.09"/>
          <path d="M71.71,37.78c-.16,0-.31-.06-.43-.17l-7.5-7.05c-.25-.24-.27-.64-.03-.89,.24-.25,.64-.27,.89-.03l7.5,7.05c.25,.24,.27,.64,.03,.89-.12,.13-.29,.2-.46,.2Z"/>
        </g>
        <path d="M71.71,40.8c-.35,0-.63-.28-.63-.63v-3.02c0-.35,.28-.63,.63-.63s.63,.28,.63,.63v3.02c0,.35-.28,.63-.63,.63Z"/>
        <g>
          <polyline class="cls-1" points="48.93 6.42 13.61 6.42 13.61 64.73 64.21 64.73 64.28 21.76"/>
          <g>
            <polyline class="cls-1" points="13.61 18.1 13.61 6.42 37 6.42"/>
            <path d="M13.61,18.74c-.35,0-.63-.28-.63-.63V6.42c0-.35,.28-.63,.63-.63h23.39c.35,0,.63,.28,.63,.63s-.28,.63-.63,.63H14.24v11.05c0,.35-.28,.63-.63,.63Z"/>
          </g>
          <path d="M64.21,68.74H13.61c-.35,0-.63-.28-.63-.63V21.94c0-.35,.28-.63,.63-.63s.63,.28,.63,.63v45.54h49.97c.35,0,.63,.28,.63,.63s-.28,.63-.63,.63Z"/>
          <path d="M64.21,56.23c-.35,0-.63-.28-.63-.63V25.8c0-.35,.28-.63,.63-.63s.63,.28,.63,.63v29.8c0,.35-.28,.63-.63,.63Z"/>
          <path d="M64.28,22.39h-15.35c-.35,0-.63-.28-.63-.63V11.78c0-.35,.28-.63,.63-.63s.63,.28,.63,.63v9.35h13.19l-14.08-14.08h-8.02c-.35,0-.63-.28-.63-.63s.28-.63,.63-.63h8.22c.17,0,.4,.07,.52,.18l15.35,15.34c.18,.18,.23,.45,.14,.69-.1,.24-.33,.39-.58,.39Z"/>
        </g>
        <g>
          <polyline class="cls-1" points="27.06 47.41 6.25 37.14 6.25 71.56"/>
          <path d="M6.25,72.19c-.35,0-.63-.28-.63-.63V37.14c0-.22,.11-.42,.3-.54,.18-.12,.42-.13,.61-.03l20.81,10.26c.31,.15,.44,.53,.29,.85s-.53,.44-.85,.29L6.88,38.16v33.4c0,.35-.28,.63-.63,.63Z"/>
        </g>
        <g>
          <polyline class="cls-1" points="56.79 42.77 71.71 37.14 71.71 71.56"/>
          <path d="M71.71,72.19c-.35,0-.63-.28-.63-.63V38.06l-14.06,5.3c-.32,.12-.69-.04-.82-.37-.12-.33,.04-.69,.37-.81l14.92-5.62c.19-.07,.41-.05,.58,.07,.17,.12,.27,.31,.27,.52v34.42c0,.35-.28,.63-.63,.63Z"/>
        </g>
        <path d="M48.02,46.74c-.26,0-.5-.16-.59-.41-.12-.33,.04-.69,.37-.81l4.77-1.8c.33-.12,.69,.04,.82,.37,.12,.33-.04,.69-.37,.81l-4.77,1.8c-.07,.03-.15,.04-.22,.04Z"/>
        <g>
          <polyline class="cls-1" points="19.28 58.34 38.98 44.62 71.71 67.41 71.71 71.56 6.25 71.56 6.25 67.41 16.2 60.48"/>
          <path d="M71.71,72.19H6.25c-.35,0-.63-.28-.63-.63v-4.15c0-.21,.1-.4,.27-.52l9.96-6.94c.29-.2,.68-.13,.88,.16,.2,.29,.13,.68-.16,.88l-9.69,6.75v3.19H71.08v-3.19l-32.1-22.36-19.34,13.47c-.29,.2-.68,.13-.88-.16-.2-.29-.13-.68,.16-.88l19.7-13.72c.22-.15,.51-.15,.72,0l32.73,22.8c.17,.12,.27,.31,.27,.52v4.15c0,.35-.28,.63-.63,.63Z"/>
        </g>
        <path d="M30.99,20.83h-8.58c-.35,0-.63-.28-.63-.63s.28-.63,.63-.63h8.58c.35,0,.63,.28,.63,.63s-.28,.63-.63,.63Z"/>
        <path d="M45.8,28.4h-5.78c-.35,0-.63-.28-.63-.63s.28-.63,.63-.63h5.78c.35,0,.63,.28,.63,.63s-.28,.63-.63,.63Z"/>
        <path d="M37,28.4h-14.59c-.35,0-.63-.28-.63-.63s.28-.63,.63-.63h14.59c.35,0,.63,.28,.63,.63s-.28,.63-.63,.63Z"/>
        <path d="M37.68,37.79h-15.28c-.35,0-.63-.28-.63-.63s.28-.63,.63-.63h15.28c.35,0,.63,.28,.63,.63s-.28,.63-.63,.63Z"/>
        <path d="M55.41,33.1h-22.95c-.35,0-.63-.28-.63-.63s.28-.63,.63-.63h22.95c.35,0,.63,.28,.63,.63s-.28,.63-.63,.63Z"/>
        <path d="M30.04,33.1h-7.64c-.35,0-.63-.28-.63-.63s.28-.63,.63-.63h7.64c.35,0,.63,.28,.63,.63s-.28,.63-.63,.63Z"/>
      </g>
      <path class="cls-2" d="M23.1,78H0v-15.31c0-.35,.28-.63,.63-.63s.63,.28,.63,.63v14.05H23.1c.35,0,.63,.28,.63,.63s-.28,.63-.63,.63Z"/>
      <path class="cls-2" d="M51.93,78h-.63c-.35,0-.63-.28-.63-.63s.28-.63,.63-.63h.63c.35,0,.63,.28,.63,.63s-.28,.63-.63,.63Zm-3.16,0h-.63c-.35,0-.63-.28-.63-.63s.28-.63,.63-.63h.63c.35,0,.63,.28,.63,.63s-.28,.63-.63,.63Zm-3.16,0h-.63c-.35,0-.63-.28-.63-.63s.28-.63,.63-.63h.63c.35,0,.63,.28,.63,.63s-.28,.63-.63,.63Zm-3.16,0h-.63c-.35,0-.63-.28-.63-.63s.28-.63,.63-.63h.63c.35,0,.63,.28,.63,.63s-.28,.63-.63,.63Zm-3.16,0h-.63c-.35,0-.63-.28-.63-.63s.28-.63,.63-.63h.63c.35,0,.63,.28,.63,.63s-.28,.63-.63,.63Zm-3.16,0h-.63c-.35,0-.63-.28-.63-.63s.28-.63,.63-.63h.63c.35,0,.63,.28,.63,.63s-.28,.63-.63,.63Zm-3.16,0h-.63c-.35,0-.63-.28-.63-.63s.28-.63,.63-.63h.63c.35,0,.63,.28,.63,.63s-.28,.63-.63,.63Zm-3.16,0h-.63c-.35,0-.63-.28-.63-.63s.28-.63,.63-.63h.63c.35,0,.63,.28,.63,.63s-.28,.63-.63,.63Zm-3.16,0h-.63c-.35,0-.63-.28-.63-.63s.28-.63,.63-.63h.63c.35,0,.63,.28,.63,.63s-.28,.63-.63,.63Z"/>
      <path class="cls-2" d="M77.37,58.41c-.35,0-.63-.28-.63-.63v-.63c0-.35,.28-.63,.63-.63s.63,.28,.63,.63v.63c0,.35-.28,.63-.63,.63Zm0-3.16c-.35,0-.63-.28-.63-.63v-.63c0-.35,.28-.63,.63-.63s.63,.28,.63,.63v.63c0,.35-.28,.63-.63,.63Zm0-3.16c-.35,0-.63-.28-.63-.63v-.63c0-.35,.28-.63,.63-.63s.63,.28,.63,.63v.63c0,.35-.28,.63-.63,.63Zm0-3.16c-.35,0-.63-.28-.63-.63v-.63c0-.35,.28-.63,.63-.63s.63,.28,.63,.63v.63c0,.35-.28,.63-.63,.63Zm0-3.16c-.35,0-.63-.28-.63-.63v-.63c0-.35,.28-.63,.63-.63s.63,.28,.63,.63v.63c0,.35-.28,.63-.63,.63Zm0-3.16c-.35,0-.63-.28-.63-.63v-.63c0-.35,.28-.63,.63-.63s.63,.28,.63,.63v.63c0,.35-.28,.63-.63,.63Zm0-3.16c-.35,0-.63-.28-.63-.63v-.63c0-.35,.28-.63,.63-.63s.63,.28,.63,.63v.63c0,.35-.28,.63-.63,.63Z"/>
      <path class="cls-2" d="M47.51,1.26h-13.41c-.35,0-.63-.28-.63-.63s.28-.63,.63-.63h13.41c.35,0,.63,.28,.63,.63s-.28,.63-.63,.63Z"/>
      <path class="cls-2" d="M30.99,1.26h-.63c-.35,0-.63-.28-.63-.63s.28-.63,.63-.63h.63c.35,0,.63,.28,.63,.63s-.28,.63-.63,.63Zm-3.16,0h-.63c-.35,0-.63-.28-.63-.63s.28-.63,.63-.63h.63c.35,0,.63,.28,.63,.63s-.28,.63-.63,.63Zm-3.16,0h-.63c-.35,0-.63-.28-.63-.63s.28-.63,.63-.63h.63c.35,0,.63,.28,.63,.63s-.28,.63-.63,.63Z"/>
    </g>
  </g>
</svg>