<?xml version="1.0" encoding="UTF-8"?>
<svg id="Layer_2" data-name="Layer 2" xmlns="http://www.w3.org/2000/svg" viewBox="0 0 90 83">
  <defs>
    <style>
      .cls-1 {
        fill: #fff;
      }

      .cls-2 {
        fill: #2354cf;
      }
    </style>
  </defs>
  <g id="Layer_1-2" data-name="Layer 1">
    <g>
      <ellipse class="cls-1" cx="48.49" cy="44.49" rx="30.78" ry="31.09"/>
      <path d="M48.49,76.36c-17.4,0-31.55-14.3-31.55-31.88S31.09,12.61,48.49,12.61s31.55,14.3,31.55,31.88-14.15,31.88-31.55,31.88Zm0-62.19c-16.54,0-30,13.6-30,30.31s13.46,30.31,30,30.31,30-13.6,30-30.31-13.46-30.31-30-30.31Z"/>
      <g>
        <path d="M38.98,12.07c-.12,0-.23-.03-.35-.08l-.19-.1c-.76-.38-1.08-.55-1.88-.92-.39-.18-.56-.64-.38-1.04,.18-.39,.64-.57,1.03-.39,.82,.38,1.15,.55,1.93,.94l.19,.1c.38,.19,.54,.66,.35,1.05-.14,.27-.41,.43-.69,.43Z"/>
        <path d="M41.05,55.43c-.2,0-.4-.08-.55-.23-9.41-9.5-17.05-19.66-21.52-28.61-4.6-9.2-5.3-16.12-1.97-19.48,2.74-2.77,8.23-2.52,16.33,.75,.4,.16,.59,.62,.43,1.02-.16,.4-.61,.6-1.01,.44-7.36-2.97-12.43-3.34-14.66-1.09-2.78,2.81-1.96,9.25,2.26,17.67,4.4,8.8,11.94,18.82,21.24,28.21,.3,.31,.3,.8,0,1.11-.15,.15-.35,.23-.55,.23Z"/>
        <path d="M54.3,67.29c-.16,0-.33-.05-.47-.16-.88-.68-1.69-1.32-2.46-1.93-.33-.27-.39-.76-.12-1.1,.27-.34,.76-.39,1.09-.12,.75,.61,1.55,1.24,2.43,1.91,.34,.26,.41,.75,.15,1.1-.15,.2-.38,.31-.62,.31Zm-4.83-3.91c-.18,0-.36-.06-.5-.19-.79-.68-1.56-1.37-2.34-2.08-.32-.29-.34-.79-.05-1.1,.29-.32,.78-.34,1.09-.05,.77,.71,1.52,1.38,2.3,2.05,.33,.28,.36,.77,.09,1.1-.15,.18-.37,.27-.59,.27Zm-4.59-4.2c-.19,0-.38-.07-.53-.21-.52-.5-1.06-1.02-1.63-1.57-.31-.3-.32-.79-.02-1.11,.3-.31,.79-.32,1.09-.02,.56,.55,1.1,1.07,1.62,1.56,.31,.3,.32,.79,.03,1.11-.15,.16-.36,.24-.56,.24Z"/>
        <path d="M82.49,80.88c-6.16,0-15.55-4.14-26.09-11.76-.35-.25-.43-.74-.18-1.09,.25-.35,.73-.43,1.08-.18,13.59,9.83,25.81,13.94,29.72,9.99,2.46-2.49,1.76-8.94-1.84-16.85-.18-.39,0-.86,.38-1.04,.39-.18,.85,0,1.03,.38,3.93,8.64,4.5,15.6,1.53,18.61-1.29,1.31-3.21,1.94-5.62,1.94Z"/>
        <path d="M84.28,58.34c-.28,0-.54-.15-.68-.41l-.33-.63q-.42-.79-1.02-1.76l-.3-.48c-.23-.36-.12-.85,.24-1.08,.36-.23,.84-.12,1.07,.24l.3,.48c.63,1.01,.64,1.02,1.09,1.86l.33,.62c.2,.38,.06,.85-.32,1.06-.12,.06-.24,.09-.36,.09Z"/>
      </g>
      <path d="M14.76,81.03c-2.48,0-4.49-.67-5.89-2.09-4.17-4.21-2.06-13.76,5.78-26.21,.23-.36,.71-.47,1.07-.24,.36,.23,.47,.72,.24,1.08-7.2,11.43-9.5,20.72-5.99,24.26,5.94,6,26.74-4.87,45.42-23.73,18.68-18.87,29.44-39.88,23.49-45.88-3.11-3.15-10.78-1.68-20.5,3.92-.37,.21-.84,.08-1.06-.29-.21-.38-.08-.85,.29-1.07,10.68-6.14,18.62-7.44,22.36-3.66,6.76,6.83-3.56,27.96-23.49,48.09-15.8,15.96-32.22,25.82-41.71,25.82Z"/>
      <path class="cls-2" d="M69.72,2.84c-.33,0-.64-.22-.74-.56-.12-.41,.11-.85,.52-.97,.25-.08,.51-.15,.76-.22,.41-.12,.84,.13,.95,.55,.11,.42-.13,.85-.54,.96-.24,.07-.48,.14-.73,.21-.07,.02-.15,.03-.22,.03Zm12.18-.55c-.09,0-.18-.02-.27-.05-.22-.08-.45-.16-.68-.22-.41-.12-.65-.55-.53-.97,.12-.42,.54-.66,.96-.54,.27,.08,.53,.16,.79,.26,.4,.15,.61,.6,.46,1-.11,.32-.41,.51-.73,.51Zm-8.42-.36c-.37,0-.7-.27-.76-.65-.07-.43,.21-.83,.63-.91,.27-.05,.53-.09,.79-.13,.42-.06,.82,.23,.88,.66,.06,.43-.23,.82-.65,.89-.25,.04-.49,.08-.74,.12-.05,0-.09,.01-.13,.01Zm4.63-.35s-.02,0-.03,0c-.23,0-.46-.01-.69-.01-.43,0-.8-.35-.8-.78s.32-.78,.75-.78c.3,0,.56,0,.81,.02,.43,.02,.76,.38,.74,.82-.02,.42-.36,.75-.77,.75Z"/>
      <path class="cls-2" d="M82.6,29.19c-.12,0-.24-.03-.35-.08-.38-.19-.53-.66-.34-1.05,5.62-11.23,6.55-19.99,2.56-24.02-.3-.31-.3-.8,0-1.11,.3-.31,.79-.31,1.1,0,4.56,4.61,3.75,13.78-2.27,25.83-.14,.27-.41,.43-.69,.43Z"/>
      <g>
        <path class="cls-2" d="M.77,74.56c-.43,0-.77-.35-.77-.78,0-1.74,.22-3.67,.66-5.73,.09-.42,.5-.69,.92-.6,.42,.09,.68,.51,.59,.93-.41,1.95-.62,3.77-.62,5.4,0,.43-.35,.78-.77,.78Z"/>
        <path class="cls-2" d="M2.6,64.65c-.08,0-.16-.01-.25-.04-.41-.14-.62-.58-.49-.99,1.17-3.54,2.8-7.11,4.84-10.62,.22-.37,.69-.5,1.06-.28,.37,.22,.49,.7,.27,1.07-1.99,3.41-3.58,6.88-4.71,10.32-.11,.33-.41,.54-.73,.54Z"/>
      </g>
      <path class="cls-2" d="M49.04,83c-.42,0-.77-.34-.77-.77,0-.43,.33-.79,.76-.79,.25,0,.51-.01,.76-.02,.41-.03,.79,.32,.8,.76,.01,.43-.32,.79-.75,.81-.26,0-.53,.02-.79,.02h-.01Zm-3.09-.08s-.04,0-.05,0c-.26-.02-.53-.04-.79-.06-.43-.04-.74-.42-.7-.85,.04-.43,.41-.75,.84-.71,.25,.02,.5,.04,.76,.06,.43,.03,.75,.4,.72,.83-.03,.41-.37,.73-.77,.73Zm6.96-.17c-.39,0-.72-.29-.77-.69-.05-.43,.25-.82,.68-.87,.25-.03,.5-.06,.75-.1,.42-.06,.81,.24,.87,.67,.06,.43-.24,.82-.66,.88-.26,.04-.52,.07-.78,.1-.03,0-.06,0-.09,0Zm-10.8-.29s-.09,0-.13-.01c-.26-.05-.52-.09-.78-.14-.42-.08-.69-.49-.61-.92,.08-.42,.49-.7,.91-.62,.25,.05,.5,.09,.74,.14,.42,.07,.7,.48,.63,.9-.06,.38-.39,.65-.76,.65Zm14.61-.37c-.35,0-.67-.25-.76-.61-.09-.42,.17-.84,.59-.93,.25-.06,.49-.11,.74-.18,.41-.1,.83,.15,.94,.57,.1,.42-.15,.84-.57,.95-.26,.06-.51,.13-.77,.18-.06,.01-.11,.02-.17,.02Zm-18.39-.49c-.07,0-.14,0-.21-.03-.25-.07-.51-.15-.76-.22-.41-.13-.64-.56-.51-.98,.12-.41,.56-.65,.97-.52,.24,.07,.48,.15,.73,.22,.41,.12,.65,.55,.54,.97-.1,.35-.41,.57-.74,.57Zm22.11-.56c-.32,0-.62-.21-.73-.53-.14-.41,.08-.85,.49-.99,.24-.08,.48-.17,.72-.25,.4-.14,.85,.07,.99,.47,.14,.41-.06,.85-.47,1-.25,.09-.5,.18-.75,.26-.08,.03-.17,.04-.25,.04Zm-25.78-.7c-.1,0-.19-.02-.29-.06-.25-.1-.49-.2-.73-.3-.39-.17-.58-.63-.41-1.03s.62-.58,1.01-.42c.23,.1,.47,.2,.7,.29,.4,.16,.59,.61,.43,1.02-.12,.31-.41,.49-.72,.49Z"/>
    </g>
  </g>
</svg>