<?xml version="1.0" encoding="UTF-8"?>
<svg id="Layer_2" data-name="Layer 2" xmlns="http://www.w3.org/2000/svg" viewBox="0 0 80 82">
  <defs>
    <style>
      .cls-1 {
        fill: #fff;
      }

      .cls-2 {
        fill: #2354cf;
      }
    </style>
  </defs>
  <g id="Layer_1-2" data-name="Layer 1">
    <g>
      <g>
        <path class="cls-1" d="M73.19,67.11c1.86,1.86,1.86,4.91,0,6.77h0c-1.86,1.86-4.91,1.86-6.77,0l-9.64-9.63c-1.86-1.86-1.86-4.91,0-6.77h0c1.86-1.86,4.91-1.86,6.77,0l7.33,7.33,2.31,2.31Z"/>
        <ellipse class="cls-1" cx="33.74" cy="33.58" rx="26.96" ry="26.95"/>
        <ellipse class="cls-1" cx="58.98" cy="24.39" rx="15.08" ry="15.07"/>
        <path d="M33.74,61.21c-15.24,0-27.64-12.39-27.64-27.63S18.5,5.95,33.74,5.95c3.79,0,7.47,.75,10.92,2.24,.34,.15,.5,.55,.35,.89-.15,.34-.55,.5-.89,.35-3.28-1.41-6.78-2.13-10.38-2.13-14.49,0-26.28,11.79-26.28,26.27s11.79,26.27,26.28,26.27c10.39,0,19.82-6.13,24.04-15.63,.15-.34,.55-.5,.9-.35,.34,.15,.5,.55,.35,.9-4.43,9.98-14.35,16.44-25.28,16.44Z"/>
        <path d="M56.86,57.78c-.17,0-.34-.06-.47-.19l-4.33-4.2c-.27-.26-.28-.69-.01-.96,.26-.27,.69-.28,.96-.01l4.33,4.2c.27,.26,.28,.69,.01,.96-.13,.14-.31,.21-.49,.21Z"/>
        <path d="M69.81,75.96c-1.4,0-2.8-.53-3.87-1.6l-9.64-9.63c-2.13-2.13-2.13-5.6,0-7.73,2.13-2.13,5.6-2.13,7.73,0l7.33,7.33c.26,.27,.26,.69,0,.96-.27,.26-.69,.26-.96,0l-7.33-7.33c-1.6-1.6-4.21-1.6-5.81,0-1.6,1.6-1.6,4.21,0,5.81l9.64,9.63c.77,.77,1.8,1.2,2.91,1.2s2.13-.43,2.91-1.2c1.6-1.6,1.6-4.21,0-5.81-.26-.26-.26-.69,0-.96s.69-.27,.96,0c2.13,2.13,2.13,5.6,0,7.73-1.07,1.07-2.47,1.6-3.87,1.6Z"/>
        <path d="M41.03,53.83c-.27,0-.53-.16-.63-.43-.14-.35,.04-.74,.39-.88,4.48-1.73,8.14-5.04,10.33-9.33,.17-.33,.58-.47,.91-.3,.33,.17,.47,.58,.3,.91-2.34,4.58-6.27,8.12-11.05,9.97-.08,.03-.16,.05-.25,.05Z"/>
        <path d="M33.74,55.18c-.37,0-.68-.3-.68-.68s.3-.68,.68-.68c1.38,0,2.77-.15,4.11-.43,.36-.07,.73,.16,.81,.52,.08,.37-.16,.73-.52,.81-1.44,.31-2.92,.46-4.4,.46Z"/>
        <path d="M58.98,40.14c-8.69,0-15.75-7.06-15.75-15.75s7.07-15.75,15.75-15.75c3.13,0,6.16,.92,8.75,2.65,.31,.21,.39,.63,.19,.94s-.63,.39-.94,.19c-2.37-1.58-5.13-2.42-7.99-2.42-7.94,0-14.4,6.46-14.4,14.39s6.46,14.39,14.4,14.39,14.4-6.46,14.4-14.39c0-1.73-.3-3.42-.9-5.02-.13-.35,.05-.74,.4-.87,.36-.13,.74,.05,.87,.4,.65,1.75,.99,3.6,.99,5.5,0,8.68-7.07,15.75-15.75,15.75Z"/>
        <path d="M64.5,22.78c-.17,0-.34-.06-.47-.19-.27-.26-.28-.69-.02-.96l9.56-9.89c.26-.27,.69-.28,.96-.02,.27,.26,.28,.69,.02,.96l-9.56,9.89c-.13,.14-.31,.21-.49,.21Z"/>
        <path d="M57.65,29.87h-.01c-.19,0-.37-.08-.49-.22l-6.35-7.03c-.25-.28-.23-.71,.05-.96,.28-.25,.71-.23,.96,.05l5.86,6.49,4.14-4.28c.26-.27,.69-.28,.96-.02,.27,.26,.28,.69,.02,.96l-4.64,4.8c-.13,.13-.3,.21-.49,.21Z"/>
        <path class="cls-2" d="M61.47,77.7c-.18,0-.36-.07-.49-.21l-.45-.47c-.26-.27-.25-.7,.02-.96,.27-.26,.7-.25,.96,.02l.45,.47c.26,.27,.25,.7-.02,.96-.13,.13-.3,.19-.47,.19Zm-2.26-2.35c-.18,0-.36-.07-.49-.21l-.45-.47c-.26-.27-.25-.7,.02-.96,.27-.26,.7-.25,.96,.02l.45,.47c.26,.27,.25,.7-.02,.96-.13,.13-.3,.19-.47,.19Zm-2.26-2.35c-.18,0-.36-.07-.49-.21l-.45-.47c-.26-.27-.25-.7,.02-.96,.27-.26,.7-.25,.96,.02l.45,.47c.26,.27,.25,.7-.02,.96-.13,.13-.3,.19-.47,.19Zm-2.26-2.35c-.18,0-.36-.07-.49-.21l-.45-.47c-.26-.27-.25-.7,.02-.96,.27-.26,.7-.25,.96,.02l.45,.47c.26,.27,.25,.7-.02,.96-.13,.13-.3,.19-.47,.19Z"/>
        <g>
          <path class="cls-2" d="M.68,34.4c-.37,0-.68-.3-.68-.68,0-4.49,.87-8.84,2.58-12.95,.14-.35,.54-.51,.89-.37,.35,.14,.51,.54,.37,.89-1.64,3.94-2.47,8.12-2.47,12.43,0,.37-.3,.68-.68,.68Z"/>
          <path class="cls-2" d="M5.9,16.57c-.12,0-.25-.03-.36-.11-.32-.2-.41-.62-.2-.93,.12-.19,.24-.37,.36-.55,.21-.31,.63-.39,.94-.18,.31,.21,.39,.63,.18,.94-.12,.18-.23,.35-.35,.53-.13,.2-.35,.31-.57,.31Zm1.88-2.64c-.15,0-.3-.05-.42-.15-.29-.23-.34-.66-.11-.95,.14-.17,.28-.34,.41-.51,.24-.29,.66-.33,.95-.09,.29,.24,.33,.66,.09,.95-.14,.16-.27,.33-.4,.5-.13,.17-.33,.26-.53,.26Zm2.13-2.44c-.17,0-.34-.06-.47-.19-.27-.26-.28-.69-.02-.96,.15-.16,.31-.32,.46-.47,.26-.26,.69-.26,.96,0,.26,.26,.26,.69,0,.96-.15,.15-.3,.3-.44,.45-.13,.14-.31,.21-.49,.21Zm2.36-2.22c-.19,0-.38-.08-.51-.24-.24-.28-.21-.71,.07-.95,.17-.14,.34-.29,.51-.43,.29-.24,.71-.19,.95,.09,.24,.29,.19,.71-.09,.95-.16,.13-.33,.27-.49,.41-.13,.11-.28,.16-.44,.16Zm2.57-1.98c-.21,0-.42-.1-.56-.29-.21-.31-.14-.73,.17-.94,.18-.13,.36-.25,.55-.37,.31-.21,.73-.13,.94,.18s.13,.73-.18,.94c-.18,.12-.35,.24-.53,.36-.12,.08-.25,.12-.39,.12Zm2.75-1.72c-.24,0-.47-.12-.59-.34-.18-.33-.07-.74,.26-.92,.19-.11,.39-.22,.58-.32,.33-.18,.74-.05,.91,.28,.18,.33,.05,.74-.28,.91-.19,.1-.37,.2-.56,.31-.11,.06-.22,.09-.33,.09Zm2.9-1.45c-.26,0-.51-.15-.62-.4-.15-.34,0-.74,.35-.89,.2-.09,.41-.18,.61-.26,.34-.14,.74,.02,.88,.37,.14,.35-.02,.74-.37,.88-.2,.08-.39,.16-.58,.25-.09,.04-.18,.06-.27,.06Zm3.03-1.15c-.29,0-.55-.18-.64-.47-.11-.35,.08-.74,.44-.85,.21-.07,.42-.13,.63-.2,.35-.11,.73,.09,.84,.45,.11,.36-.09,.73-.45,.84-.2,.06-.41,.13-.61,.19-.07,.02-.14,.03-.21,.03Zm3.13-.85c-.31,0-.59-.21-.66-.53-.08-.36,.15-.72,.52-.8,.22-.05,.43-.09,.65-.14,.36-.07,.72,.17,.79,.53s-.17,.72-.53,.79c-.21,.04-.42,.08-.62,.13-.05,.01-.1,.02-.15,.02Zm3.2-.53c-.34,0-.63-.25-.67-.6-.04-.37,.22-.7,.6-.75l.65-.07c.38-.03,.7,.24,.74,.61,.04,.37-.23,.7-.61,.74l-.64,.07s-.05,0-.08,0Zm3.24-.22c-.37,0-.67-.29-.68-.66,0-.37,.29-.68,.66-.69,.22,0,.44,0,.66,0,.37,0,.68,.3,.68,.68s-.3,.68-.68,.68c-.21,0-.42,0-.64,0h-.01Z"/>
        </g>
      </g>
      <path class="cls-2" d="M70.14,82c-2.52,0-5.02-.84-7.04-2.48-.29-.24-.34-.66-.1-.95,.24-.29,.66-.33,.95-.1,2.98,2.41,7.14,2.86,10.59,1.15,.34-.17,.74-.03,.91,.31s.03,.74-.31,.91c-1.58,.79-3.3,1.17-5,1.17Z"/>
      <path class="cls-2" d="M63.76,45.52c-.31,0-.59-.21-.66-.53-.08-.37,.15-.73,.51-.81,.21-.05,.41-.1,.61-.15,.37-.09,.73,.12,.83,.49,.09,.36-.12,.73-.49,.83-.22,.06-.44,.11-.66,.16-.05,.01-.1,.02-.15,.02Zm3.11-.97c-.27,0-.52-.16-.63-.43-.14-.35,.03-.74,.38-.88,.2-.08,.39-.16,.58-.24,.35-.15,.74,0,.89,.35s0,.74-.35,.89c-.21,.09-.41,.18-.62,.26-.08,.03-.17,.05-.25,.05Zm2.92-1.45c-.23,0-.46-.12-.58-.33-.19-.32-.09-.74,.23-.93,.18-.11,.36-.22,.53-.33,.31-.2,.74-.12,.94,.2,.2,.31,.12,.73-.2,.94-.19,.12-.38,.24-.57,.36-.11,.07-.23,.1-.35,.1Zm2.65-1.89c-.19,0-.39-.08-.52-.24-.24-.29-.2-.72,.08-.96,.16-.14,.32-.27,.48-.41,.28-.25,.71-.23,.96,.05,.25,.28,.23,.71-.05,.96-.17,.15-.34,.3-.51,.44-.13,.11-.28,.16-.44,.16Zm2.32-2.28c-.16,0-.32-.05-.44-.17-.28-.24-.32-.67-.07-.96,.14-.16,.27-.32,.41-.48,.24-.29,.66-.34,.95-.1,.29,.24,.33,.66,.1,.95-.14,.17-.28,.34-.43,.51-.13,.16-.32,.24-.51,.24Zm1.93-2.62c-.12,0-.25-.03-.36-.1-.32-.2-.41-.62-.22-.93,.11-.18,.22-.35,.32-.54,.19-.32,.6-.44,.93-.25,.32,.19,.44,.6,.25,.93-.11,.2-.23,.39-.35,.58-.13,.21-.35,.32-.58,.32Zm1.49-2.89c-.09,0-.18-.02-.26-.05-.35-.14-.51-.54-.36-.89,.08-.19,.16-.39,.23-.58,.14-.35,.52-.52,.88-.39,.35,.13,.53,.53,.39,.88-.08,.21-.16,.42-.25,.62-.11,.26-.36,.42-.63,.42Zm1.01-3.09c-.05,0-.11,0-.16-.02-.36-.09-.59-.45-.5-.82,.05-.2,.1-.41,.14-.61,.08-.37,.44-.6,.8-.53,.37,.08,.6,.43,.53,.8-.05,.22-.1,.44-.15,.66-.07,.31-.35,.52-.66,.52Z"/>
    </g>
  </g>
</svg>