<?xml version="1.0" encoding="UTF-8"?>
<svg id="Layer_2" data-name="Layer 2" xmlns="http://www.w3.org/2000/svg" viewBox="0 0 90 83">
  <defs>
    <style>
      .cls-1 {
        fill: #fff;
      }

      .cls-2 {
        fill: #2354cf;
      }
    </style>
  </defs>
  <g id="Layer_1-2" data-name="Layer 1">
    <g>
      <rect class="cls-1" x="26.27" y="7.23" width="39.28" height="43.24"/>
      <polygon class="cls-1" points="78.81 41.47 13.38 41.47 2.46 67.51 89.24 67.49 78.81 41.47"/>
      <rect class="cls-1" x="2.46" y="67.51" width="86.78" height="14.73"/>
      <path d="M26.27,51.25c-.42,0-.76-.34-.76-.76V7.23c0-.42,.34-.76,.76-.76h7.49c.42,0,.76,.34,.76,.76s-.34,.76-.76,.76h-6.74V50.49c0,.42-.34,.76-.76,.76Z"/>
      <path d="M65.55,46.79c-.42,0-.76-.34-.76-.76V7.99h-26.93c-.42,0-.76-.34-.76-.76s.34-.76,.76-.76h27.69c.42,0,.76,.34,.76,.76V46.02c0,.42-.34,.76-.76,.76Z"/>
      <g>
        <path d="M89.24,68.25c-.3,0-.58-.18-.7-.48l-5.95-14.83c-.16-.39,.03-.83,.42-.99,.39-.16,.83,.03,.99,.42l5.95,14.83c.16,.39-.03,.83-.42,.99-.09,.04-.19,.06-.28,.06Z"/>
        <path d="M81.66,49.34c-.3,0-.58-.18-.7-.48l-2.66-6.64h-9.25c-.42,0-.76-.34-.76-.76s.34-.76,.76-.76h9.76c.31,0,.59,.19,.7,.48l2.85,7.12c.16,.39-.03,.83-.42,.99-.09,.04-.19,.06-.28,.06Z"/>
        <path d="M4.5,63.43c-.1,0-.2-.02-.29-.06-.39-.16-.57-.61-.41-1l8.88-21.2c.12-.28,.39-.47,.7-.47h12.83c.42,0,.76,.34,.76,.76s-.34,.76-.76,.76H13.88L5.2,62.96c-.12,.29-.4,.47-.7,.47Z"/>
      </g>
      <path d="M89.24,83c-.42,0-.76-.34-.76-.76v-13.97h-31.83c-.42,0-.76-.34-.76-.76s.34-.76,.76-.76h32.59c.42,0,.76,.34,.76,.76v14.73c0,.42-.34,.76-.76,.76Z"/>
      <path d="M2.46,83c-.42,0-.76-.34-.76-.76v-14.73c0-.42,.34-.76,.76-.76H52.58c.42,0,.76,.34,.76,.76s-.34,.76-.76,.76H3.22v13.97c0,.42-.34,.76-.76,.76Z"/>
      <path d="M68.99,51.25H22.83c-.42,0-.76-.34-.76-.76s.34-.76,.76-.76h46.16c.42,0,.76,.34,.76,.76s-.34,.76-.76,.76Z"/>
      <path d="M55.1,38.78h-17.75c-.42,0-.76-.34-.76-.76V19.69c0-.42,.34-.76,.76-.76h8.56c.42,0,.76,.34,.76,.76s-.34,.76-.76,.76h-7.8v16.81h16.23v-4.6c0-.42,.34-.76,.76-.76s.76,.34,.76,.76v5.36c0,.42-.34,.76-.76,.76Z"/>
      <g>
        <path d="M52.07,27.06c-.19,0-.37-.07-.52-.21-.31-.29-.32-.77-.04-1.08l6.18-6.61c.29-.31,.77-.32,1.07-.03,.31,.29,.32,.77,.04,1.08l-6.18,6.61c-.15,.16-.35,.24-.55,.24Z"/>
        <path d="M46.89,32.6s0,0-.01,0c-.21,0-.42-.1-.56-.26l-4.4-5.03c-.28-.32-.24-.8,.07-1.07,.32-.28,.79-.24,1.07,.07l3.85,4.4,2.64-2.83c.29-.31,.77-.32,1.07-.03,.31,.29,.32,.77,.03,1.08l-3.21,3.44c-.14,.15-.34,.24-.55,.24Z"/>
      </g>
      <g>
        <path class="cls-2" d="M35.52,1.52h-.84c-.42,0-.76-.34-.76-.76s.34-.76,.76-.76h.84c.42,0,.76,.34,.76,.76s-.34,.76-.76,.76Zm-4.21,0h-.84c-.42,0-.76-.34-.76-.76s.34-.76,.76-.76h.84c.42,0,.76,.34,.76,.76s-.34,.76-.76,.76Zm-4.21,0h-.84c-.42,0-.76-.34-.76-.76s.34-.76,.76-.76h.84c.42,0,.76,.34,.76,.76s-.34,.76-.76,.76Z"/>
        <path class="cls-2" d="M55.76,1.52h-16.57c-.42,0-.76-.34-.76-.76s.34-.76,.76-.76h16.57c.42,0,.76,.34,.76,.76s-.34,.76-.76,.76Z"/>
      </g>
      <path class="cls-2" d="M.76,55.69c-.1,0-.2-.02-.29-.06-.39-.16-.57-.61-.41-1l.33-.78c.16-.39,.61-.57,.99-.41,.39,.16,.57,.61,.41,1l-.33,.78c-.12,.29-.4,.47-.7,.47Zm1.63-3.89c-.1,0-.2-.02-.29-.06-.39-.16-.57-.61-.41-1l.33-.78c.16-.39,.61-.57,.99-.41,.39,.16,.57,.61,.41,1l-.33,.78c-.12,.29-.4,.47-.7,.47Zm1.63-3.89c-.1,0-.2-.02-.29-.06-.39-.16-.57-.61-.41-1l.33-.78c.16-.39,.61-.57,.99-.41,.39,.16,.57,.61,.41,1l-.33,.78c-.12,.29-.4,.47-.7,.47Zm1.63-3.89c-.1,0-.2-.02-.29-.06-.39-.16-.57-.61-.41-1l.33-.78c.16-.39,.6-.57,.99-.41,.39,.16,.57,.61,.41,1l-.33,.78c-.12,.29-.4,.47-.7,.47Z"/>
      <path class="cls-2" d="M76.96,36.09h-6.06v-8.16c0-.42,.34-.76,.76-.76s.76,.34,.76,.76v6.64h4.55c.42,0,.76,.34,.76,.76s-.34,.76-.76,.76Z"/>
    </g>
  </g>
</svg>