<?xml version="1.0" encoding="UTF-8"?>
<svg id="Layer_2" data-name="Layer 2" xmlns="http://www.w3.org/2000/svg" viewBox="0 0 82 76">
  <defs>
    <style>
      .cls-1 {
        fill: #fff;
      }

      .cls-2 {
        fill: #2354cf;
      }
    </style>
  </defs>
  <g id="Layer_1-2" data-name="Layer 1">
    <g>
      <g>
        <rect class="cls-1" x="18.61" y="6.95" width="55.96" height="43.16"/>
        <rect class="cls-1" x=".68" y="24.85" width="50.86" height="40.84"/>
        <g>
          <polyline class="cls-1" points=".68 39.19 .68 65.68 11.23 65.68 11.23 75.32 18.46 65.68 51.54 65.68 51.54 53.7"/>
          <path d="M11.23,76c-.07,0-.15-.01-.22-.04-.28-.09-.46-.35-.46-.65v-8.95H.68c-.38,0-.68-.31-.68-.68v-26.49c0-.38,.3-.68,.68-.68s.68,.31,.68,.68v25.81H11.23c.38,0,.68,.31,.68,.68v7.59l6.01-8c.13-.17,.33-.27,.54-.27H50.86v-11.3c0-.38,.3-.68,.68-.68s.68,.31,.68,.68v11.98c0,.38-.3,.68-.68,.68H18.8l-7.03,9.36c-.13,.17-.33,.27-.54,.27Z"/>
        </g>
        <g>
          <polyline class="cls-1" points="14.72 24.85 .68 24.85 .68 34.81"/>
          <path d="M.68,35.5c-.38,0-.68-.31-.68-.68v-9.97c0-.38,.3-.68,.68-.68H14.72c.38,0,.68,.31,.68,.68s-.3,.68-.68,.68H1.36v9.28c0,.38-.3,.68-.68,.68Z"/>
        </g>
        <g>
          <polyline class="cls-1" points="74.57 28.53 74.57 50.11 64.02 50.11 64.02 59.74 56.79 50.11 27.81 50.11"/>
          <path d="M64.02,60.43c-.21,0-.41-.1-.54-.27l-7.03-9.36H27.81c-.38,0-.68-.31-.68-.68s.3-.68,.68-.68h28.98c.21,0,.41,.1,.54,.27l6.01,8v-7.59c0-.38,.3-.68,.68-.68h9.87V28.53c0-.38,.3-.68,.68-.68s.68,.31,.68,.68v21.58c0,.38-.3,.68-.68,.68h-9.87v8.95c0,.29-.19,.55-.46,.65-.07,.02-.14,.04-.22,.04Z"/>
        </g>
        <path d="M74.57,25.84c-.38,0-.68-.31-.68-.68v-4.39c0-.38,.3-.68,.68-.68s.68,.31,.68,.68v4.39c0,.38-.3,.68-.68,.68Z"/>
        <g>
          <polyline class="cls-1" points="61.7 6.95 74.57 6.95 74.57 17.19"/>
          <path d="M74.57,17.88c-.38,0-.68-.31-.68-.68V7.64h-12.19c-.38,0-.68-.31-.68-.68s.3-.68,.68-.68h12.87c.38,0,.68,.31,.68,.68v10.24c0,.38-.3,.68-.68,.68Z"/>
        </g>
        <g>
          <polyline class="cls-1" points="24.64 50.11 18.61 50.11 18.61 6.95 57.62 6.95"/>
          <path d="M24.64,50.8h-6.03c-.38,0-.68-.31-.68-.68V6.95c0-.38,.3-.68,.68-.68H57.62c.38,0,.68,.31,.68,.68s-.3,.68-.68,.68H19.29V49.43h5.35c.38,0,.68,.31,.68,.68s-.3,.68-.68,.68Z"/>
        </g>
        <path d="M29.76,58.23h-.68c-.38,0-.68-.31-.68-.68s.3-.68,.68-.68h.68c.38,0,.68,.31,.68,.68s-.3,.68-.68,.68Zm-3.4,0h-.68c-.38,0-.68-.31-.68-.68s.3-.68,.68-.68h.68c.38,0,.68,.31,.68,.68s-.3,.68-.68,.68Zm-3.4,0h-.68c-.38,0-.68-.31-.68-.68s.3-.68,.68-.68h.68c.38,0,.68,.31,.68,.68s-.3,.68-.68,.68Z"/>
        <g>
          <path d="M35.49,19.28h-.68c-.38,0-.68-.31-.68-.68s.3-.68,.68-.68h.68c.38,0,.68,.31,.68,.68s-.3,.68-.68,.68Zm-3.4,0h-.68c-.38,0-.68-.31-.68-.68s.3-.68,.68-.68h.68c.38,0,.68,.31,.68,.68s-.3,.68-.68,.68Zm-3.4,0h-.68c-.38,0-.68-.31-.68-.68s.3-.68,.68-.68h.68c.38,0,.68,.31,.68,.68s-.3,.68-.68,.68Z"/>
          <g>
            <path d="M48.65,25.25H28.03c-.38,0-.68-.31-.68-.68s.3-.68,.68-.68h20.62c.38,0,.68,.31,.68,.68s-.3,.68-.68,.68Z"/>
            <path d="M65.43,25.25h-11.35c-.38,0-.68-.31-.68-.68s.3-.68,.68-.68h11.35c.38,0,.68,.31,.68,.68s-.3,.68-.68,.68Z"/>
          </g>
          <g>
            <path d="M36.45,31.22h-8.41c-.38,0-.68-.31-.68-.68s.3-.68,.68-.68h8.41c.38,0,.68,.31,.68,.68s-.3,.68-.68,.68Z"/>
            <path d="M55.11,31.22h-14.16c-.38,0-.68-.31-.68-.68s.3-.68,.68-.68h14.16c.38,0,.68,.31,.68,.68s-.3,.68-.68,.68Z"/>
          </g>
          <path d="M42.2,37.2h-14.16c-.38,0-.68-.31-.68-.68s.3-.68,.68-.68h14.16c.38,0,.68,.31,.68,.68s-.3,.68-.68,.68Z"/>
        </g>
      </g>
      <path class="cls-2" d="M46.51,72.09h-.68c-.38,0-.68-.31-.68-.68s.3-.68,.68-.68h.68c.38,0,.68,.31,.68,.68s-.3,.68-.68,.68Zm-3.4,0h-.68c-.38,0-.68-.31-.68-.68s.3-.68,.68-.68h.68c.38,0,.68,.31,.68,.68s-.3,.68-.68,.68Zm-3.4,0h-.68c-.38,0-.68-.31-.68-.68s.3-.68,.68-.68h.68c.38,0,.68,.31,.68,.68s-.3,.68-.68,.68Zm-3.4,0h-.68c-.38,0-.68-.31-.68-.68s.3-.68,.68-.68h.68c.38,0,.68,.31,.68,.68s-.3,.68-.68,.68Zm-3.4,0h-.68c-.38,0-.68-.31-.68-.68s.3-.68,.68-.68h.68c.38,0,.68,.31,.68,.68s-.3,.68-.68,.68Zm-3.4,0h-.68c-.38,0-.68-.31-.68-.68s.3-.68,.68-.68h.68c.38,0,.68,.31,.68,.68s-.3,.68-.68,.68Zm-3.4,0h-.68c-.38,0-.68-.31-.68-.68s.3-.68,.68-.68h.68c.38,0,.68,.31,.68,.68s-.3,.68-.68,.68Z"/>
      <path class="cls-2" d="M81.32,33.6c-.38,0-.68-.31-.68-.68v-.68c0-.38,.3-.68,.68-.68s.68,.31,.68,.68v.68c0,.38-.3,.68-.68,.68Zm0-3.42c-.38,0-.68-.31-.68-.68v-.68c0-.38,.3-.68,.68-.68s.68,.31,.68,.68v.68c0,.38-.3,.68-.68,.68Zm0-3.42c-.38,0-.68-.31-.68-.68v-.68c0-.38,.3-.68,.68-.68s.68,.31,.68,.68v.68c0,.38-.3,.68-.68,.68Zm0-3.42c-.38,0-.68-.31-.68-.68v-.68c0-.38,.3-.68,.68-.68s.68,.31,.68,.68v.68c0,.38-.3,.68-.68,.68Zm0-3.42c-.38,0-.68-.31-.68-.68v-.68c0-.38,.3-.68,.68-.68s.68,.31,.68,.68v.68c0,.38-.3,.68-.68,.68Zm0-3.42c-.38,0-.68-.31-.68-.68v-.68c0-.38,.3-.68,.68-.68s.68,.31,.68,.68v.68c0,.38-.3,.68-.68,.68Z"/>
      <path class="cls-2" d="M81.32,43.11c-.38,0-.68-.31-.68-.68v-5.92c0-.38,.3-.68,.68-.68s.68,.31,.68,.68v5.92c0,.38-.3,.68-.68,.68Z"/>
      <path class="cls-2" d="M12.55,13.91c-.38,0-.68-.31-.68-.68v-.68c0-.38,.3-.68,.68-.68s.68,.31,.68,.68v.68c0,.38-.3,.68-.68,.68Zm0-3.42c-.38,0-.68-.31-.68-.68v-.68c0-.38,.3-.68,.68-.68s.68,.31,.68,.68v.68c0,.38-.3,.68-.68,.68Zm0-3.42c-.38,0-.68-.31-.68-.68v-.68c0-.38,.3-.68,.68-.68s.68,.31,.68,.68v.68c0,.38-.3,.68-.68,.68Zm0-3.42c-.38,0-.68-.31-.68-.68v-.68c0-.38,.3-.68,.68-.68s.68,.31,.68,.68v.68c0,.38-.3,.68-.68,.68ZM21.16,1.37h-.68c-.38,0-.68-.31-.68-.68s.3-.68,.68-.68h.68c.38,0,.68,.31,.68,.68s-.3,.68-.68,.68Zm-3.4,0h-.68c-.38,0-.68-.31-.68-.68s.3-.68,.68-.68h.68c.38,0,.68,.31,.68,.68s-.3,.68-.68,.68Zm-3.4,0h-.68c-.38,0-.68-.31-.68-.68s.3-.68,.68-.68h.68c.38,0,.68,.31,.68,.68s-.3,.68-.68,.68Z"/>
      <path class="cls-2" d="M43.75,1.37H24.53c-.38,0-.68-.31-.68-.68s.3-.68,.68-.68h19.23c.38,0,.68,.31,.68,.68s-.3,.68-.68,.68Z"/>
    </g>
  </g>
</svg>