<?xml version="1.0" encoding="UTF-8"?>
<svg id="Layer_2" data-name="Layer 2" xmlns="http://www.w3.org/2000/svg" viewBox="0 0 78.66 79.56">
  <defs>
    <style>
      .cls-1 {
        fill: #fff;
      }

      .cls-2 {
        fill: #2354cf;
      }
    </style>
  </defs>
  <g id="Layer_1-2" data-name="Layer 1">
    <g>
      <g>
        <polygon class="cls-1" points="39.33 23.33 25.49 31.32 25.49 47.31 39.33 55.3 53.17 47.31 53.17 31.32 39.33 23.33"/>
        <g>
          <g>
            <path d="M39.33,56.23c-.13,0-.27-.03-.39-.1l-13.84-7.99c-.24-.14-.39-.39-.39-.67v-3.13c0-.43,.35-.77,.78-.77s.78,.35,.78,.77v2.68l13.07,7.54,13.07-7.54v-15.09l-13.07-7.54-13.07,7.54v8.7c0,.43-.35,.77-.78,.77s-.78-.35-.78-.77v-9.15c0-.28,.15-.53,.39-.67l13.84-7.99c.24-.14,.54-.14,.78,0l13.84,7.99c.24,.14,.39,.39,.39,.67v15.98c0,.28-.15,.53-.39,.67l-13.84,7.99c-.12,.07-.25,.1-.39,.1Z"/>
            <path d="M47.96,35.26c-.27,0-.53-.14-.67-.39-.21-.37-.09-.84,.28-1.06l5.21-3.01c.37-.22,.85-.09,1.06,.28,.21,.37,.09,.84-.28,1.06l-5.21,3.01c-.12,.07-.26,.1-.39,.1Z"/>
            <path d="M39.33,40.25c-.13,0-.27-.03-.39-.1l-13.84-7.99c-.37-.21-.5-.69-.28-1.06,.21-.37,.69-.5,1.06-.28l13.45,7.77,5.75-3.32c.37-.21,.84-.09,1.06,.28,.21,.37,.09,.84-.28,1.06l-6.14,3.54c-.12,.07-.25,.1-.39,.1Z"/>
            <path d="M39.33,56.23c-.43,0-.78-.35-.78-.77v-15.98c0-.43,.35-.77,.78-.77s.78,.35,.78,.77v15.98c0,.43-.35,.77-.78,.77Z"/>
          </g>
          <path d="M27.3,47.2c-.27,0-.53-.14-.67-.39-.21-.37-.09-.84,.28-1.06l.61-.35c.37-.22,.84-.09,1.06,.28,.21,.37,.09,.84-.28,1.06l-.61,.35c-.12,.07-.26,.1-.39,.1Zm3.06-1.77c-.27,0-.53-.14-.67-.39-.21-.37-.09-.84,.28-1.06l.61-.35c.37-.21,.84-.09,1.06,.28,.21,.37,.09,.84-.28,1.06l-.61,.35c-.12,.07-.25,.1-.39,.1Zm3.06-1.77c-.27,0-.53-.14-.67-.39-.21-.37-.09-.84,.28-1.06l.61-.35c.37-.22,.85-.09,1.06,.28,.21,.37,.09,.84-.28,1.06l-.61,.35c-.12,.07-.26,.1-.39,.1Zm3.06-1.77c-.27,0-.53-.14-.67-.39-.21-.37-.09-.84,.28-1.06l.61-.35c.37-.21,.84-.09,1.06,.28,.21,.37,.09,.84-.28,1.06l-.61,.35c-.12,.07-.26,.1-.39,.1Z"/>
          <path d="M51.34,47.18c-.13,0-.26-.03-.39-.1l-.61-.35c-.37-.21-.5-.69-.28-1.06,.21-.37,.69-.5,1.06-.28l.61,.35c.37,.21,.5,.69,.28,1.06-.14,.25-.4,.39-.67,.39Zm-3.06-1.77c-.13,0-.26-.03-.39-.1l-.61-.35c-.37-.21-.5-.69-.28-1.06,.21-.37,.69-.5,1.06-.28l.61,.35c.37,.21,.5,.69,.28,1.06-.14,.25-.4,.39-.67,.39Zm-3.06-1.77c-.13,0-.26-.03-.39-.1l-.61-.35c-.37-.21-.5-.69-.28-1.06,.21-.37,.69-.5,1.06-.28l.61,.35c.37,.21,.5,.69,.28,1.06-.14,.25-.4,.39-.67,.39Zm-3.06-1.77c-.13,0-.26-.03-.39-.1l-.61-.35c-.37-.21-.5-.69-.29-1.06,.21-.37,.69-.5,1.06-.28l.61,.35c.37,.21,.5,.69,.29,1.06-.14,.25-.4,.39-.67,.39Z"/>
          <path d="M39.33,37.55c-.43,0-.78-.35-.78-.77v-.71c0-.43,.35-.77,.78-.77s.78,.35,.78,.77v.71c0,.43-.35,.77-.78,.77Zm0-3.54c-.43,0-.78-.35-.78-.77v-.71c0-.43,.35-.77,.78-.77s.78,.35,.78,.77v.71c0,.43-.35,.77-.78,.77Zm0-3.54c-.43,0-.78-.35-.78-.77v-.71c0-.43,.35-.77,.78-.77s.78,.35,.78,.77v.71c0,.43-.35,.77-.78,.77Zm0-3.54c-.43,0-.78-.35-.78-.77v-.71c0-.43,.35-.77,.78-.77s.78,.35,.78,.77v.71c0,.43-.35,.77-.78,.77Z"/>
        </g>
        <g>
          <path d="M39.33,12.42c-.43,0-.78-.35-.78-.77V1.21c0-.43,.35-.77,.78-.77s.78,.35,.78,.77V11.65c0,.43-.35,.77-.78,.77Z"/>
          <path d="M39.33,20.83c-.43,0-.78-.35-.78-.77v-1.39c0-.43,.35-.77,.78-.77s.78,.35,.78,.77v1.39c0,.43-.35,.77-.78,.77Zm0-4.22c-.43,0-.78-.35-.78-.77v-1.41c0-.43,.35-.77,.78-.77s.78,.35,.78,.77v1.41c0,.43-.35,.77-.78,.77Z"/>
          <path d="M42.98,5.64c-.2,0-.4-.08-.55-.23l-3.11-3.11-3.11,3.11c-.3,.3-.79,.3-1.1,0-.3-.3-.3-.79,0-1.1L39.33,.11l4.2,4.2c.3,.3,.3,.79,0,1.1-.15,.15-.35,.23-.55,.23Z"/>
        </g>
        <g>
          <path d="M39.33,78.46c-.43,0-.78-.35-.78-.77v-10.44c0-.43,.35-.77,.78-.77s.78,.35,.78,.77v10.44c0,.43-.35,.77-.78,.77Z"/>
          <path d="M39.33,65.24c-.43,0-.78-.35-.78-.77v-1.41c0-.43,.35-.77,.78-.77s.78,.35,.78,.77v1.41c0,.43-.35,.77-.78,.77Zm0-4.24c-.43,0-.78-.35-.78-.77v-1.39c0-.43,.35-.77,.78-.77s.78,.35,.78,.77v1.39c0,.43-.35,.77-.78,.77Z"/>
          <path d="M39.33,78.78l-4.2-4.2c-.3-.3-.3-.79,0-1.1,.3-.3,.79-.3,1.1,0l3.11,3.11,3.11-3.11c.3-.3,.79-.3,1.1,0s.3,.79,0,1.1l-4.2,4.2Z"/>
        </g>
        <g>
          <path d="M64.22,15.2c-.2,0-.4-.08-.55-.23-.3-.3-.3-.79,0-1.1l7.38-7.38c.3-.3,.79-.3,1.1,0s.3,.79,0,1.1l-7.38,7.38c-.15,.15-.35,.23-.55,.23Z"/>
          <path d="M58.27,21.15c-.2,0-.4-.08-.55-.23-.3-.3-.3-.79,0-1.1l.98-.98c.3-.3,.79-.3,1.1,0,.3,.3,.3,.79,0,1.1l-.98,.98c-.15,.15-.35,.23-.55,.23Zm2.98-2.98c-.2,0-.4-.08-.55-.23-.3-.3-.3-.79,0-1.1l1-1c.3-.3,.79-.3,1.1,0,.3,.3,.3,.79,0,1.1l-1,1c-.15,.15-.35,.23-.55,.23Z"/>
          <path d="M71.6,12.99c-.43,0-.78-.35-.78-.77V7.82h-4.39c-.43,0-.78-.35-.78-.77s.35-.77,.78-.77h5.94v5.94c0,.43-.35,.77-.78,.77Z"/>
        </g>
        <g>
          <path d="M6.93,72.62c-.2,0-.4-.08-.55-.23-.3-.3-.3-.79,0-1.1l7.38-7.38c.3-.3,.79-.3,1.1,0s.3,.79,0,1.1l-7.38,7.38c-.15,.15-.35,.23-.55,.23Z"/>
          <path d="M16.28,63.28c-.2,0-.4-.08-.55-.23-.3-.3-.3-.79,0-1.1l1-1c.3-.3,.79-.3,1.1,0,.3,.3,.3,.79,0,1.1l-1,1c-.15,.15-.35,.23-.55,.23Zm3-3c-.2,0-.4-.08-.55-.23-.3-.3-.3-.79,0-1.1l.98-.98c.3-.3,.79-.3,1.1,0,.3,.3,.3,.79,0,1.1l-.98,.98c-.15,.15-.35,.23-.55,.23Z"/>
          <path d="M12.1,72.62H6.16v-5.94c0-.43,.35-.77,.78-.77s.78,.35,.78,.77v4.39h4.39c.43,0,.78,.35,.78,.77s-.35,.77-.78,.77Z"/>
        </g>
        <g>
          <path d="M77.57,40.22h-10.44c-.43,0-.78-.35-.78-.77s.35-.77,.78-.77h10.44c.43,0,.78,.35,.78,.77s-.35,.77-.78,.77Z"/>
          <path d="M64.35,40.22h-1.42c-.43,0-.78-.35-.78-.77s.35-.77,.78-.77h1.42c.43,0,.78,.35,.78,.77s-.35,.77-.78,.77Zm-4.24,0h-1.39c-.43,0-.78-.35-.78-.77s.35-.77,.78-.77h1.39c.43,0,.78,.35,.78,.77s-.35,.77-.78,.77Z"/>
          <path d="M73.91,43.87c-.2,0-.4-.08-.55-.23-.3-.3-.3-.79,0-1.1l3.11-3.11-3.11-3.11c-.3-.3-.3-.79,0-1.1s.79-.3,1.1,0l4.2,4.2-4.2,4.2c-.15,.15-.35,.23-.55,.23Z"/>
        </g>
        <g>
          <path d="M11.53,40.22H1.1c-.43,0-.78-.35-.78-.77s.35-.77,.78-.77H11.53c.43,0,.78,.35,.78,.77s-.35,.77-.78,.77Z"/>
          <path d="M19.94,40.22h-1.39c-.43,0-.78-.35-.78-.77s.35-.77,.78-.77h1.39c.43,0,.78,.35,.78,.77s-.35,.77-.78,.77Zm-4.22,0h-1.42c-.43,0-.78-.35-.78-.77s.35-.77,.78-.77h1.42c.43,0,.78,.35,.78,.77s-.35,.77-.78,.77Z"/>
          <path d="M4.75,43.87c-.2,0-.4-.08-.55-.23L0,39.45l4.2-4.2c.3-.3,.79-.3,1.1,0,.3,.3,.3,.79,0,1.1l-3.11,3.11,3.11,3.11c.3,.3,.3,.79,0,1.1-.15,.15-.35,.23-.55,.23Z"/>
        </g>
        <g>
          <path d="M71.67,72.56c-.2,0-.4-.08-.55-.23l-7.38-7.38c-.3-.3-.3-.79,0-1.1,.3-.3,.79-.3,1.1,0l7.38,7.38c.3,.3,.3,.79,0,1.1-.15,.15-.35,.23-.55,.23Z"/>
          <path d="M62.33,63.21c-.2,0-.4-.08-.55-.23l-1-1c-.3-.3-.3-.79,0-1.1s.79-.3,1.1,0l1,1c.3,.3,.3,.79,0,1.1-.15,.15-.35,.23-.55,.23Zm-3-3c-.2,0-.4-.08-.55-.23l-.98-.98c-.3-.3-.3-.79,0-1.1s.79-.3,1.1,0l.98,.98c.3,.3,.3,.79,0,1.1-.15,.15-.35,.23-.55,.23Z"/>
          <path d="M72.44,72.56h-5.94c-.43,0-.78-.35-.78-.77s.35-.77,.78-.77h4.39v-4.39c0-.43,.35-.77,.78-.77s.78,.35,.78,.77v5.94Z"/>
        </g>
        <g>
          <path d="M14.31,15.2c-.2,0-.4-.08-.55-.23L6.38,7.59c-.3-.3-.3-.79,0-1.1s.79-.3,1.1,0l7.38,7.38c.3,.3,.3,.79,0,1.1-.15,.15-.35,.23-.55,.23Z"/>
          <path d="M20.26,21.15c-.2,0-.4-.08-.55-.23l-.98-.98c-.3-.3-.3-.79,0-1.1,.3-.3,.79-.3,1.1,0l.98,.98c.3,.3,.3,.79,0,1.1-.15,.15-.35,.23-.55,.23Zm-2.98-2.98c-.2,0-.4-.08-.55-.23l-1-1c-.3-.3-.3-.79,0-1.1,.3-.3,.79-.3,1.1,0l1,1c.3,.3,.3,.79,0,1.1-.15,.15-.35,.23-.55,.23Z"/>
          <path d="M6.93,12.99c-.43,0-.78-.35-.78-.77V6.27h5.94c.43,0,.78,.35,.78,.77s-.35,.77-.78,.77H7.71v4.39c0,.43-.35,.77-.78,.77Z"/>
        </g>
      </g>
      <path class="cls-2" d="M77.21,14.09c-.43,0-.78-.35-.78-.77v-.71c0-.43,.35-.77,.78-.77s.78,.35,.78,.77v.71c0,.43-.35,.77-.78,.77Zm0-3.54c-.43,0-.78-.35-.78-.77v-.71c0-.43,.35-.77,.78-.77s.78,.35,.78,.77v.71c0,.43-.35,.77-.78,.77Zm0-3.54c-.43,0-.78-.35-.78-.77v-.71c0-.43,.35-.77,.78-.77s.78,.35,.78,.77v.71c0,.43-.35,.77-.78,.77Zm0-3.54c-.43,0-.78-.35-.78-.77v-.71c0-.43,.35-.77,.78-.77s.78,.35,.78,.77v.71c0,.43-.35,.77-.78,.77Zm-1.6-1.93h-.71c-.43,0-.78-.35-.78-.77s.35-.77,.78-.77h.71c.43,0,.78,.35,.78,.77s-.35,.77-.78,.77Zm-3.54,0h-.71c-.43,0-.78-.35-.78-.77s.35-.77,.78-.77h.71c.43,0,.78,.35,.78,.77s-.35,.77-.78,.77Z"/>
      <g>
        <path class="cls-2" d="M78.59,79.56h-5.75c-.43,0-.78-.35-.78-.77s.35-.77,.78-.77h4.2v-5.82c0-.43,.35-.77,.78-.77s.78,.35,.78,.77v7.37Z"/>
        <path class="cls-2" d="M70.43,79.56h-.71c-.43,0-.78-.35-.78-.77s.35-.77,.78-.77h.71c.43,0,.78,.35,.78,.77s-.35,.77-.78,.77Zm-3.54,0h-.71c-.43,0-.78-.35-.78-.77s.35-.77,.78-.77h.71c.43,0,.78,.35,.78,.77s-.35,.77-.78,.77Zm-3.54,0h-.71c-.43,0-.78-.35-.78-.77s.35-.77,.78-.77h.71c.43,0,.78,.35,.78,.77s-.35,.77-.78,.77Z"/>
      </g>
      <path class="cls-2" d="M14.82,79.56H6.43c-.43,0-.78-.35-.78-.77s.35-.77,.78-.77H14.82c.43,0,.78,.35,.78,.77s-.35,.77-.78,.77Z"/>
    </g>
  </g>
</svg>